<svg width="19" height="22" viewBox="0 0 19 22" fill="none" xmlns="http://www.w3.org/2000/svg">
<path d="M5 7H11V5C11 4.16667 10.7083 3.45833 10.125 2.875C9.54167 2.29167 8.83333 2 8 2C7.16667 2 6.45833 2.29167 5.875 2.875C5.29167 3.45833 5 4.16667 5 5V7ZM14 22C12.6167 22 11.4375 21.5125 10.4625 20.5375C9.4875 19.5625 9 18.3833 9 17C9 15.6167 9.4875 14.4375 10.4625 13.4625C11.4375 12.4875 12.6167 12 14 12C15.3833 12 16.5625 12.4875 17.5375 13.4625C18.5125 14.4375 19 15.6167 19 17C19 18.3833 18.5125 19.5625 17.5375 20.5375C16.5625 21.5125 15.3833 22 14 22ZM8.25 21H2C1.45 21 0.979167 20.8042 0.5875 20.4125C0.195833 20.0208 0 19.55 0 19V9C0 8.45 0.195833 7.97917 0.5875 7.5875C0.979167 7.19583 1.45 7 2 7H3V5C3 3.61667 3.4875 2.4375 4.4625 1.4625C5.4375 0.4875 6.61667 0 8 0C9.38333 0 10.5625 0.4875 11.5375 1.4625C12.5125 2.4375 13 3.61667 13 5V7H14C14.55 7 15.0208 7.19583 15.4125 7.5875C15.8042 7.97917 16 8.45 16 9V10.3C15.6667 10.1833 15.3333 10.1042 15 10.0625C14.6667 10.0208 14.3333 10 14 10C12.05 10 10.3958 10.6792 9.0375 12.0375C7.67917 13.3958 7 15.05 7 17C7 17.7167 7.1125 18.4125 7.3375 19.0875C7.5625 19.7625 7.86667 20.4 8.25 21ZM14 17C14.4167 17 14.7708 16.8542 15.0625 16.5625C15.3542 16.2708 15.5 15.9167 15.5 15.5C15.5 15.0833 15.3542 14.7292 15.0625 14.4375C14.7708 14.1458 14.4167 14 14 14C13.5833 14 13.2292 14.1458 12.9375 14.4375C12.6458 14.7292 12.5 15.0833 12.5 15.5C12.5 15.9167 12.6458 16.2708 12.9375 16.5625C13.2292 16.8542 13.5833 17 14 17ZM14 20C14.5 20 14.9667 19.8833 15.4 19.65C15.8333 19.4167 16.1917 19.0917 16.475 18.675C16.0917 18.4417 15.6917 18.2708 15.275 18.1625C14.8583 18.0542 14.4333 18 14 18C13.5667 18 13.1417 18.0542 12.725 18.1625C12.3083 18.2708 11.9083 18.4417 11.525 18.675C11.8083 19.0917 12.1667 19.4167 12.6 19.65C13.0333 19.8833 13.5 20 14 20Z" fill="white"/>
</svg>
