<?xml version="1.0" encoding="utf-8"?>
<!-- Generator: Adobe Illustrator 25.2.0, SVG Export Plug-In . SVG Version: 6.00 Build 0)  -->
<svg version="1.1" id="Layer_1" xmlns="http://www.w3.org/2000/svg" xmlns:xlink="http://www.w3.org/1999/xlink" x="0px" y="0px"
	 viewBox="0 0 261.3 55.1" style="enable-background:new 0 0 261.3 55.1;" xml:space="preserve">
<style type="text/css">
	.st0{fill:none;stroke:#FFFFFF;stroke-width:0.1609;}
	.st1{fill-rule:evenodd;clip-rule:evenodd;fill:#FFFFFF;}
	.st2{fill-rule:evenodd;clip-rule:evenodd;fill:#FFFFFF;stroke:#FFFFFF;stroke-width:0.1609;}
	.st3{fill:#E5BF24;}
	.st4{fill:#FFFFFF;}
	.st5{fill:#2EC3C4;}
	.st6{font-family:'Roboto-Bold';}
	.st7{font-size:7.5767px;}
</style>
<path class="st0" d="M27.8,11.5c0.3,0.2,0.6,0.3,0.8,0.4c0,0-0.2,0.2-0.3,0.3c-0.1,0.3-0.3,0-0.3,0c0.3,0.3,0.2,0.3,0.1,0.8
	c-0.1,0.3-0.5,0.3-0.8,0.3c-0.2,0-0.2-0.2-0.5-0.3c-0.4,0-0.6-0.5-0.9-0.8c-0.3-0.2-0.3-0.1-0.4-0.3c0,0,0.4,1.2,0.5,1.4
	s0.4,0.8,0.5,0.8c0.2,0.1,0.3,0.3,0.3,0.3S26,14.2,26,14c0,0,0.4,0.5,0.5,0.7c0,0.1,0.1,0.4,0.2,0.5S26.5,15,26.5,15
	s0.4,0.8,0.3,1.2c0,0.2-0.1,0.6,0,0.9c0.1,0.2,0.2,1.1,0.1,1.4c0,0.3-0.2,1-0.3,1.2c-0.2,0.3-0.8,1.5-0.9,1.7
	c-0.2,0.1-0.3,0.3-0.3,0.5c0,0.3-0.4,0.6-0.4,0.9c-0.1,0.2-0.4,0.3-0.4,0.5s-0.2,1.2-0.3,2.5c-0.1,0.5-0.7,3-0.5,3.9
	c0.2,0.8,0.3,0.9,0.4,1.4s0.2,0.9,0.5,0.9c0.6,0,1,0.2,1,0.8c0,0.7,0.3,0.3,0.8,0.6c0.1,0,0.2,0.8-0.2,1.1c-0.1,0-0.2,0-0.2,0
	c-0.1,0-2.2-0.2-4.7-0.3c0.2-0.2,0.3-0.6,0.1-0.9c-0.1-0.1-0.2-0.3-0.3-0.4l0,0l0,0l0,0c-0.1-0.2-0.2-0.3-0.3-0.5
	c-0.1-0.1-0.1-0.3-0.2-0.4l0,0c0.1-1.1-0.5-3.2-0.7-3.4c0,0,0-0.1,0-0.2c0.1-0.2,0.1-0.5,0.2-0.9c0.2-0.8,0.3-1.4,0.4-2.1
	c0.2-1.7,0.2-3.3,0.6-4.9c0.1-0.3,0-0.6,0.3-0.8c0.3-0.2,0.1-0.6,0.1-0.9c0.2-0.6,0.1-1.3-0.3-1.9c0.3-0.3,0.3-1,0.3-1.2
	c0-0.4-0.1-0.9-0.3-1.2c-0.2-0.2,0.1-0.3,0-0.5c-0.3-0.4,0-0.9-0.2-1.4c0,0-0.1-0.2-0.1-0.3c0.3-0.5,0-0.6-0.2-0.9
	c-0.1-0.3-0.2-0.7-0.2-0.8s-0.1-0.2-0.2-0.3c0-0.1,0-0.1,0-0.2c0.1-0.5,0.2-1.2-0.2-1.5l0,0c0,0.1,0.2,0.1,0.2,0.1
	c-0.1-0.1-0.1-0.2-0.1-0.3c0.1-0.4,0.2-0.7,0.2-1c0.6-1.1,1.9-2.1,2.1-2.3C23.1,4.8,23.3,5,23.3,5s0.3-0.3,0.7-0.7
	C24.3,4,24.8,3.9,25,4c0.2,0.3,0.6,0.2,0.9,0.2s0.5,0.1,0.6,0.3c0.2,0.2-0.1,0.3,0.3,0.6c0.3,0.3,0.4,0.6,0.4,0.6
	c0.2,0.3,1.1,0.7,1.7,1.1c0.7,0.3,0.3,1.1,0.4,1.4c0.2,0.3,0.8,1,1.2,1.1c0.2,0,0.4,0.3,0.2,0.6c-0.2,0.2-0.4,0.3-0.4,0.3
	c-0.2,0.3-0.3,0.5-0.7,1c-0.3,0.5-0.8,0.3-0.8,0.3c-0.2-0.3-0.2-0.5-0.4-0.7c-0.2-0.2-1.1-1-1.3-1C27,9.9,27,10.3,27,10.6
	c0,0.2-0.2,0.2-0.2,0.2c0.1,0.2,0.4,0.2,0.6,0.2C27.7,11.1,27.6,11.4,27.8,11.5z M20.8,32c0.1-1.1-0.5-3.2-0.7-3.4c0,0,0-0.1,0-0.2
	c0,0.1,0,0.1-0.1,0.2c-0.2,1.1-0.1,1.8,0.1,2.7C20.2,31.6,20.5,31.7,20.8,32z M10.9,6.8L10.9,6.8c-0.7-0.9-1.6-1.6-1.8-1.7
	C8.7,4.8,8.5,5,8.5,5S8.2,4.6,7.8,4.3C7.5,4,7.1,3.9,6.8,4C6.5,4.3,6.2,4.2,5.9,4.2c-0.3,0-0.5,0.1-0.6,0.3C5.1,4.6,5.4,4.8,5,5.1
	C4.8,5.3,4.6,5.7,4.6,5.7C4.4,5.9,3.5,6.3,2.8,6.8C2.2,7.1,2.6,7.9,2.5,8.1c-0.2,0.3-0.8,1-1.2,1.1C1,9.2,0.9,9.6,1.1,9.8
	s0.3,0.3,0.3,0.3c0.3,0.3,0.3,0.5,0.8,1C2.6,11.6,3,11.4,3,11.4l0,0l0.1-0.1l0.5,0.5C3.5,11.9,3.3,12,3.3,12s0.2,0.2,0.3,0.3
	c0.1,0.3,0.3,0,0.3,0c-0.3,0.3-0.2,0.3-0.1,0.8c0.1,0.3,0.5,0.3,0.8,0.3c0.2,0,0.2-0.2,0.5-0.3c0.4,0,0.6-0.5,0.9-0.8
	c0.3-0.2,0.3-0.1,0.4-0.3c0,0-0.4,1.2-0.5,1.4C5.6,13.8,5.3,14,5,14.5c0,0,0.8-0.3,0.8-0.4c0,0-0.5,0.5-0.5,0.7
	c0,0.1-0.1,0.4-0.2,0.5s0.3-0.1,0.3-0.1s-0.5,0.6-0.4,1c0,0.2,0.1,0.6,0,0.9c-0.1,0.2-0.2,1.1-0.2,1.4c0.1,0.3,0.3,1,0.3,1.2
	C5.2,20,5.9,21.2,6,21.4c0.1,0.1,0.3,0.3,0.3,0.5s0.2,0.3,0.2,0.4c0.1,0.1,0.3,0.4,0.3,0.5c0.1,0.2,0.4,0.3,0.4,0.5s0.2,1.2,0.3,2.5
	c0.1,0.5,0.7,3,0.5,3.9c-0.2,0.8-0.3,0.9-0.4,1.4c0,0.5-0.1,0.9-0.5,0.9c-0.6,0-1,0.2-1,0.8c0,0.7-0.3,0.3-0.8,0.6
	c-0.2,0-0.3,0.8,0.3,1.2l0,0c-0.3,0-0.5,0.1-0.7,0.1c-0.3,0.1-0.4,0.3-0.5,0.5l0,0c-0.3,0-0.6,1.1-0.7,2.6l0,0v0.1V38H3.5
	c-0.1,0-0.2,0.3-0.2,0.8c0,0.4,0.1,0.8,0.2,0.8h0.2c0,0.1,0,0.2,0,0.3c0.1,1.3,0.3,2.3,0.5,2.5c0.1,0.1,0.4,0.1,0.5,0.1
	c0.2,0.2,0.6,0.8,1,0.8c0.3,0,1,0.1,1.8,0.1l0,0c-0.1,0.3-0.2,0.5-0.3,0.8H25l-0.5-0.8l0,0h0.1c1.2-0.1,1.7-0.2,1.8-0.3
	c0.2-0.2,0.5-0.5,0.5-0.6c0.2,0,0.3-0.1,0.4-0.1c0.3-0.2,0.5-1.1,0.5-2.5c0-0.1,0-0.2,0-0.3H28c0.1,0,0.2-0.3,0.2-0.8
	c0-0.4-0.1-0.8-0.2-0.8h-0.2v-0.1v-0.1l0,0c-0.1-1.5-0.3-2.6-0.7-2.6l0,0c0-0.2-0.1-0.3-0.2-0.4c-0.2-0.2-0.5-0.3-0.7-0.3
	c0.4-0.4,0.3-1.1,0.2-1.1c-0.5-0.3-0.8,0.1-0.8-0.6c0-0.6-0.4-0.8-1-0.8c-0.3,0-0.4-0.4-0.5-0.9c-0.2-0.5-0.3-0.7-0.4-1.4
	c-0.2-0.8,0.4-3.4,0.5-3.9c0.2-1.3,0.3-2.3,0.3-2.5s0.3-0.3,0.4-0.5c0-0.3,0.4-0.6,0.4-0.9c0-0.2,0.1-0.4,0.3-0.5
	c0.2-0.2,0.8-1.4,0.9-1.7c0.1-0.2,0.3-0.9,0.3-1.2c0.1-0.3,0-1.1-0.1-1.4s0-0.7,0-0.9c0.1-0.4-0.3-1.2-0.3-1.2s0.3,0.2,0.2,0.2
	c-0.1-0.1-0.2-0.4-0.2-0.5C26.5,14.6,26,14,26,14c0,0.2,0.8,0.4,0.8,0.4s-0.2-0.3-0.3-0.3c-0.1-0.1-0.4-0.7-0.5-0.8
	c-0.1-0.2-0.5-1.4-0.5-1.4c0.1,0.3,0.1,0.2,0.4,0.3c0.3,0.3,0.5,0.8,0.9,0.8c0.3,0.1,0.3,0.3,0.5,0.3c0.3,0.1,0.7,0,0.8-0.3
	c0.1-0.6,0.3-0.5-0.1-0.8c0,0,0.3,0.3,0.3,0c0.1-0.1,0.3-0.3,0.3-0.3s-0.1,0-0.1-0.1c0.1,0,0.1-0.1,0.1-0.1c0.1-0.1,0-0.4,0.1-0.6
	c0,0.1,0.1,0.2,0.2,0.3c0,0,0.4,0.2,0.8-0.3s0.5-0.7,0.7-1c0,0,0.3-0.1,0.4-0.2c0.3-0.3,0-0.6-0.2-0.6c-0.3-0.1-1-0.8-1.2-1.1
	c-0.1-0.3,0.3-1-0.4-1.4c-0.6-0.4-1.5-0.8-1.7-1.1c0,0-0.2-0.3-0.4-0.6c-0.3-0.3-0.1-0.4-0.3-0.6c-0.1-0.2-0.3-0.3-0.6-0.3
	c-0.3,0-0.7,0.1-0.9-0.2c-0.3-0.2-0.7-0.1-1,0.3C23.7,4.6,23.3,5,23.3,5S23,4.8,22.6,5.1c-0.3,0.2-1.5,1.2-2.1,2.3v0.1
	c0-0.3,0-0.6-0.1-0.9S20.1,6.2,20.1,6c0.4-0.5,0.3-1.2-0.1-1.7c-0.1,0-0.1-0.1-0.1-0.2c0.3-0.3,0.3-0.6,0.2-0.8
	C20,3,19.8,2.8,19.7,2.5c0-0.1-0.1-0.2,0-0.3C20,2,19.9,1.5,19.6,1.4c-0.2-0.1-0.6-0.1-0.7,0c0,0.1-0.1,0-0.1,0c0-0.1-0.1,0-0.1-0.1
	c-0.4,0-0.8,0.1-1.2,0c-0.2,0-0.3-0.2-0.4-0.1c-0.2,0-0.3,0.1-0.4,0.2c-0.4,0-0.8-0.1-1.3-0.2c0.1-0.1,0-0.1-0.1-0.1
	C15.2,1,14.9,1,14.7,1c-0.2,0.1-0.3,0.3-0.5,0.3c-0.2,0.1-0.3,0-0.5,0.1c-0.1,0-0.2,0.1-0.3,0.1s-0.2,0.1-0.3,0.2
	c-0.1,0,0,0.1-0.1,0.1c-0.1-0.3-0.5-0.3-0.7-0.1C12.2,1.8,12.1,1.8,12,2c-0.1,0-0.1,0.2-0.1,0.3C11.8,2.5,12,2.6,12,2.7
	c0.2-0.1,0,0,0,0.1l0,0c-0.3,0.1-0.6,0.4-0.4,0.7c0,0.2,0.1,0.3,0,0.4C11.5,4.2,11,4.3,11,4.6c-0.2,0.3-0.3,0.7-0.2,1.1
	c0,0.1,0.1,0.3,0.2,0.4l0,0C11,6.4,11,6.6,10.9,6.8z M14.8,34c-0.4,0-0.8,0-1.3,0h0.1c0.3,0,0.7,0,0.9-0.1c0.6-0.2,0.5-1.1,0.3-1.7
	c-0.1-0.2-0.3-0.3-0.3-0.5c0-0.3,0.2-0.7,0.2-0.9c0-0.4-0.1-0.8-0.2-1.2c-0.2-1.1,0.2-2.2,0.4-3.3c0.2-0.9,0.2-1.6,0.1-2.5
	c0.2,0.3,0.4,0.5,0.8,0.5c0.5,0,0.6-0.2,0.8-0.5c-0.2,0.9-0.1,1.6,0.1,2.5c0.3,1.1,0.6,2.2,0.3,3.3c0,0.4-0.1,0.8-0.1,1.2
	c0,0.3,0.2,0.6,0.2,0.9c0,0.2-0.3,0.3-0.3,0.5c-0.2,0.6-0.3,1.5,0.3,1.7C17.4,34,17.7,34,18,34h0.1C17.2,34,16,33.9,14.8,34z
	 M11.7,28.4L11.7,28.4C11.7,28.5,11.7,28.5,11.7,28.4c-0.2,0.3-0.8,2.1-0.8,3.2c0,0.1,0,0.3,0,0.4l0,0c0.3-0.3,0.6-0.4,0.7-0.9
	C11.9,30.2,12,29.5,11.7,28.4z M8.5,44.1L8.5,44.1L8.5,44.1z"/>
<path class="st0" d="M12.2,5.2c0-0.2,0.3-0.5,0.3-0.6c-0.2-0.1-0.4-0.8-0.2-0.8c0.3-0.1,0.6-0.3,0.7-0.3c0.1-0.1,0.2-0.7,1-0.8
	c0.8,0,2.8-0.2,3.6,0c0.8,0.3,1.1,0.5,1.1,0.7c-0.1,0.2,0.3,0.3,0.4,0.4c0.2,0.1,0.3,0.3,0.2,0.7c-0.1,0.3,0.3,0.4,0.3,0.6
	s-0.1,0.3-0.2,0.4c0,0.2,0.1,0.7-0.2,0.8c-0.2,0.3-0.1,0.8,0.1,0.9c0.2,0.2-0.2,0.8-0.3,1c-0.1,0.2-0.1,0.8-0.3,0.9
	c-0.2,0.2-0.3,0.5-0.3,0.6c0,0.3-0.2,0.3-0.3,0.4c-0.1,0.2-0.5,0.6-0.7,0.7c-0.3,0.1-1.2,0-1.5,0c-0.3,0-0.7,0.2-0.9,0.2
	c-0.1,0.1-0.7-0.2-0.8-0.2c-0.1-0.1-0.4-0.3-0.4-0.3s-0.3-0.4-0.4-0.7C13.2,9.5,13,9.1,12.9,9c-0.2-0.2-0.4-0.4-0.3-1
	c0.1-0.7,0.2-0.8,0.2-1.1c0-0.2-0.3-0.5-0.3-0.8C12.4,6.1,12.2,5.5,12.2,5.2z"/>
<path class="st0" d="M18.5,7.2c0,0,0.3,0.4-0.1,0.7c-0.3,0.3-0.8,0.5-1.1,0.5C17,8.4,16,8,15.9,7.3H16C16.2,7.5,16.7,8,17.3,8
	C17.6,7.9,18.3,7.7,18.5,7.2z M17.9,10.5c-0.2,0.2-0.4,0.4-0.5,0.4c-0.3,0.1-1.2,0-1.5,0C15.6,10.8,15.2,11,15,11
	c-0.1,0.1-0.6-0.1-0.8-0.2c-0.1-0.1-0.1-0.2-0.2-0.4c-0.3-0.3,0-0.8,0-0.9c0-0.1,0.1-0.6,0.1-0.8s0.2-0.3,0.2-0.3
	c0.3,0,0.5,0.2,0.6,0.5s0.5,0.8,1,0.8c0.5,0,1-0.5,1.1-0.8c0.1-0.3,0.3-0.5,0.6-0.5c0,0,0.2,0.1,0.2,0.3s0.1,0.7,0.1,0.8
	C17.8,9.6,18,10.1,17.9,10.5z"/>
<path class="st0" d="M13.3,7.2c0,0-0.3,0.4,0.1,0.7c0.3,0.3,0.8,0.5,1.1,0.5s1.3-0.3,1.4-1.1h-0.1C15.6,7.5,15.1,8,14.5,8
	C14.1,7.9,13.5,7.7,13.3,7.2z"/>
<path class="st0" d="M16.6,4.3c-0.3,0.2-0.3,0.6-0.2,1c0.1,0.3,0.2,0.5,0.3,0.9c0,0.2-0.2,0.3-0.4,0.4c-0.1,0-0.2,0.1-0.3,0.1
	c-0.1,0-0.2,0-0.4,0c-0.1,0-0.2-0.1-0.3-0.1s-0.1-0.1-0.1-0.1s0-0.1,0-0.2c0.1-0.4,0.2-0.6,0.3-0.9c0.1-0.4,0.1-0.8-0.2-1h1.3
	C16.6,4.4,16.6,4.3,16.6,4.3z M15.1,4.5c0.1,0.1,0.2,0,0.3,0.2L15.1,4.5z M14.8,4.2c0.2,0,0.5,0.1,0.5,0.2L14.8,4.2z M16.8,4.2
	c-0.1,0.2-0.3,0.3-0.3,0.6L16.8,4.2z M17,4c-0.1,0.2-0.1,0.2-0.1,0.4L17,4z M17.4,3.9C17.3,4,17.2,4,17.1,4c0,0,0,0.2-0.1,0.2
	L17.4,3.9z M15.2,5.9C15,6,14.9,6,14.9,6.1L15.2,5.9z M15.2,5.7c-0.3,0-0.4,0.2-0.6,0.2L15.2,5.7z M15.3,5.5
	c-0.2,0.1-0.3,0.2-0.6,0.3L15.3,5.5z M15.4,5.1c-0.1,0.2-0.3,0.3-0.5,0.3L15.4,5.1z M18.3,5l0.4-0.1c0,0-0.2-0.1-0.2-0.2
	C18.5,4.6,18,4,17.6,4c-0.3,0-1,0.5-1,1H18.3z M16.8,5c0,0,0.2,0.2,0.3,0.1c0.1,0,0.2-0.7,0.6-0.7C18.1,4.5,18.3,5,18.3,5
	s-0.1,0.4-0.4,0.4s-0.6-0.1-0.6-0.1L16.8,5z M13.4,5l-0.3-0.1c0,0,0.1-0.1,0.2-0.2c0.1-0.2,0.6-0.8,1-0.8c0.3,0,0.9,0.5,0.9,1
	L13.4,5L13.4,5z M15,5c0,0-0.2,0.2-0.3,0.1c-0.1,0-0.2-0.7-0.6-0.7C13.7,4.5,13.4,5,13.4,5s0.2,0.4,0.8,0.4L15,5z M14.3,8.4
	c0,0-0.1,0.1,0.1,0.2c0,0,0.3,0,0.3,0.3c0.2,0.3,0.3,0.9,1.1,1c0.7,0,0.9-0.6,1.2-1c0.1-0.1,0.1-0.2,0.3-0.2c0.4-0.1,0-0.2,0-0.2
	s-1.1-0.2-1.4-0.9C15.9,7.4,15.4,8.4,14.3,8.4z"/>
<path class="st0" d="M13.9,6.2c0,0-0.6,0.4-0.6,1C13.5,7.7,14.1,8,14.5,8C15.3,7.9,16,7,16,7h-0.5c-0.2,0-0.5-0.1-0.6-0.3l0,0
	L13.9,6.2z M15.9,7c0,0,0.7,0.9,1.4,0.9c0.4,0,1.1-0.3,1.3-0.8c0-0.4-0.2-0.7-0.6-1l-1,0.5l0,0C16.8,6.9,16.5,7,16.2,7H15.9z"/>
<path class="st0" d="M3.3,6.8c0.1,0.4,0.5,0.5,0.8,0.6H4C3.8,7.5,3.8,7.7,3.6,7.9C3.5,7.9,3.5,8,3.3,8.1c0.1,0,0-0.2,0-0.2
	C3.2,7.7,3.1,7.6,3.2,7.4l0.1-0.3C3.2,7.1,3,7,3.3,6.8L3.3,6.8z M3.3,6.8c0.1,0.4,0.5,0.5,0.8,0.6H4C3.8,7.5,3.8,7.7,3.6,7.9
	C3.5,7.9,3.5,8,3.3,8.1c0.1,0,0-0.2,0-0.2C3.2,7.7,3.1,7.6,3.2,7.4c0-0.1,0.2-0.3,0.1-0.3C3.2,7.1,3,7,3.3,6.8L3.3,6.8z M9.1,13.1
	c0,0.2,0.1,0.3,0.2,0.3c0.1,0.2,0.9,0.6,0.9,0.7c-0.1-0.4,0-1.1-0.3-1.4L9.1,13.1z M6.2,14.3c0.1,0.3,0.2,0.4,0.3,0.7
	c0.1,0.3,0,0.7-0.1,1c0.3-0.3,0.6-0.5,0.8-0.8c0.2-0.2,0.1-0.5,0-0.8L6.2,14.3z M8.8,7c0.1,0.3,0.5,0.3,0.7,0.5
	c0.3,0.3,0.3,0.6,0.3,0.8c0,0-0.2,0-0.2-0.1c-0.3-0.1-0.5,0-0.8-0.1C8.7,8,8.5,7.9,8.3,7.8L8.8,7z M6.6,4.8c0.1,0.2,0,0.3-0.2,0.5
	c0,0.1-0.1,0.3-0.2,0.4C6.1,5.8,6,5.9,6.1,6L6.6,4.8z M5.6,5.9c0.1,0.1,0.3,0,0.3,0C6,6,6.1,6.2,6.1,6.3c0.1,0,0.2,0,0.2,0.1
	L5.6,5.9z M8.1,6.5c0.1,0.1,0.1,0.3,0.1,0.3L8.1,7.1c0,0.3-0.2,0.6-0.2,0.9c0-0.5-0.5-0.7-0.8-0.9C6.9,6.9,6.7,6.8,6.9,6.5H8.1z
	 M8.2,6.3c0.3,0.2,0.3,0.4,0.5,0.5c0.3,0.1,0.5,0,0.8,0.1c0.2,0,0.3,0.3,0.5,0.3c-0.1-0.3,0-0.5,0-0.7L9.9,6.4L8.2,6.3z M8.3,8.3
	c0,0.2,0.1,0.3,0.3,0.3C8.9,8.8,9.3,9,9.4,9.4c0,0,0,0.1,0.2,0.2C9.3,9.5,9.1,9.3,8.7,9.2H8.5C8.3,9.1,8.2,9,8.2,9L8.3,8.3z M6.5,11
	c0,0.2-0.1,0.3,0,0.4c0.3,0.3,0.8,0.5,0.8,1v0.1c-0.1-0.3-0.1-0.6-0.1-0.9c0-0.2-0.1-0.3-0.3-0.4L6.5,11z M6.3,8.4
	C6.2,8.5,6.2,8.5,6.2,8.6c0,0.3,0.3,0.4,0.3,0.7L6.3,8.4z M6.4,8.5c0,0.1,0,0.2,0.1,0.2C6.6,9,6.8,9.3,6.7,9.6
	C6.6,9.8,6.3,10,6.4,10.3c0.1,0.2,0.3,0.3,0.5,0.3L7,10.7L6.4,8.5z M6.4,7.9C6.3,8,6.3,8.2,6.4,8.3c0,0.1,0.2,0.1,0.3,0.2
	c0,0.1,0,0.3,0,0.5c0.1,0.3,0.5,0.3,0.6,0.7c0.1,0.2,0.3,0.3,0.2,0.5V10c0.2-0.2,0.3-0.3,0.3-0.4C8,9.4,8,9.2,7.9,9
	c0-0.2-0.1-0.3-0.2-0.4L6.4,7.9z M6,6.9v0.2c0.1,0,0.3,0.2,0.3,0.2C6.4,7.6,6.8,7.7,7,8L6,6.9z M5.4,5.7c0.1,0.2-0.1,0.4,0.1,0.6
	c0.1,0.1,0.4,0.3,0.4,0.3L6,6.8h0.3L5.4,5.7z M3.1,11.2c0,0,0.2-0.4,0.3-0.4c0,0,0.2,0.3,0.3,0.8C3.7,11.5,3.2,11.3,3.1,11.2z
	 M3.6,11.7c0,0,0.4-0.2,0.5-0.2c0.1-0.1,0.1-0.3,0.3-0.4c0.2,0,0.5-0.2,0.6-0.2c0-0.2-0.2-0.1-0.2-0.3s0-0.6-0.2-0.7
	C4.5,9.7,4.2,10,4,10.1c-0.3,0.2-0.6,0.4-0.8,0.7l-0.1,0.5L3.6,11.7z M17.7,10.1v0.3V10.1z M17.6,10.3c0,0.1-0.1,0.2-0.1,0.3
	L17.6,10.3z M17.2,10.5c0,0.1,0,0.2-0.1,0.3L17.2,10.5z M17,10.5c-0.1,0.1-0.1,0.3-0.2,0.3L17,10.5z M16.5,10.6c0,0.1,0,0.2-0.1,0.3
	L16.5,10.6z M16.3,10.3c0,0.2,0,0.3-0.1,0.4L16.3,10.3z M15.9,10.5v0.3V10.5z M15.6,10.5c0,0.1,0.1,0.2,0.1,0.3L15.6,10.5z
	 M15.4,10.6v0.3V10.6z M15,10.6c0,0.1,0,0.2,0.1,0.3L15,10.6z M14.8,10.5v0.3V10.5z M14.4,10.3c0,0.2,0,0.3,0.1,0.4L14.4,10.3z
	 M14.1,10c0,0.2-0.1,0.4,0.1,0.5L14.1,10z M19,9.5c0,0,0.1,0.2,0,0.2c-0.2,0.3-0.2,0.5,0,0.8V9.5z M12.4,8.5
	c-0.1,0.3,0.2,0.5,0.3,0.8c0,0.2,0,0.4-0.2,0.5L12.4,8.5z M11.8,8.5L11.8,8.5c0.1,0.3,0,0.4,0.1,0.6c0.1,0.1,0.3,0.3,0.3,0.5
	s-0.3,0.4-0.1,0.6c-0.2-0.2-0.2-0.4-0.3-0.5c0,0.1-0.1,0.2-0.1,0.3s0,0.2,0,0.3c0,0-0.1,0.2-0.2,0.2L11.8,8.5z M12.1,7.4
	c0,0.3-0.1,0.4-0.2,0.6v0.3L12.1,7.4z M11.7,5.3c0,0.2-0.1,0.3-0.2,0.4c-0.1,0.3,0.2,0.6,0.1,0.9L11.7,5.3z M18.5,7.8
	c0.1,0.1,0.3,0.1,0.3,0.2h-0.1L18.5,7.8z M18.4,7.9c0,0,0.1,0.1,0.2,0.2L18.4,7.9z M18.2,8.2c0.1,0.1,0.2,0.1,0.3,0.3L18.2,8.2z
	 M18.1,8.3c0.2,0.2,0.3,0.2,0.3,0.4L18.1,8.3z M17.9,8.6c0.2,0.1,0.3,0.3,0.3,0.4c0,0-0.1,0.2,0.1,0.3L17.9,8.6z M14.2,8.4
	c0,0.1-0.2,0.2-0.1,0.3L14.2,8.4z M13.7,8.4c0,0.1-0.1,0.3-0.1,0.3c0.1,0.2,0.2,0.4,0.1,0.7V8.4z M13.4,8.2v0.3
	c-0.2,0.3-0.1,0.4,0,0.7V8.2z M13,7.8c0.1,0.3-0.2,0.4,0,0.7V7.8z M12.1,5.7V6c0.1,0.4,0.4,0.7,0.5,1.1c0,0.3,0,0.8-0.3,0.9
	L12.1,5.7z M12.5,9.8c-0.3,0.2-0.1,0.5-0.4,0.7L12.5,9.8z M15.8,7.6c0,0,0.1,0,0.2,0.1L15.8,7.6z M15.7,7.7c0,0,0.2,0,0.2,0.1
	L15.7,7.7z M15.6,7.8c0,0,0.2,0.1,0.2,0.2L15.6,7.8z M15.5,7.9c0,0,0.1,0,0.2,0.1L15.5,7.9z M15.4,8l0.2,0.2L15.4,8z M15.3,8.1
	c0,0,0.1,0.1,0.2,0.2L15.3,8.1z M15.1,8.2c0,0,0.2,0.1,0.2,0.2L15.1,8.2z M14.9,8.3c0,0,0.2,0.1,0.2,0.2L14.9,8.3z M14.8,8.4
	c0,0,0.2,0.1,0.2,0.2L14.8,8.4z M14.5,8.4l0.3,0.2L14.5,8.4z M15.9,7.5c0,0,0.3,0.7,0,1.1V7.5z M13.5,1.9c-0.1,0.3,0.1,0.3,0.1,0.5
	c-0.1,0.2-0.2,0.3-0.1,0.4V1.9z M13.8,1.8c0.1,0.2,0.1,0.5,0,0.8V1.8z M16,1.8c0,0.3-0.1,0.6-0.2,0.8L16,1.8z M15.5,1.8
	c-0.1,0.3,0,0.7-0.1,0.9L15.5,1.8z M15.3,1.7c-0.1,0.3-0.1,0.8-0.4,1L15.3,1.7z M14.8,1.6V2c-0.1,0.2-0.2,0.5-0.3,0.7L14.8,1.6z
	 M16.4,2.6c-0.2,0-0.2-0.2-0.2-0.3L16.4,2.6z M16.8,2.6c-0.1-0.1-0.1-0.3-0.3-0.4L16.8,2.6z M16.9,1.8c-0.1,0.1-0.1,0.3-0.1,0.3
	c0,0.3,0,0,0.3,0.5L16.9,1.8z M17.4,1.9L17.2,2c-0.1,0.3,0,0.3,0,0.3l0.1,0.3L17.4,1.9z M18.2,2.1c-0.1,0.1-0.3,0.2-0.3,0.3
	c0,0.2,0.1,0.5,0.2,0.5L18.2,2.1z M19.3,1.7L19.3,1.7c0.1-0.1,0.2-0.3,0.4-0.2L19.3,1.7z M19.3,2.9L19.3,2.9
	c-0.2-0.1-0.2-0.2-0.3-0.2c0-0.1,0-0.2,0-0.3V2.3c0.1,0,0.2,0.1,0.2,0.1c0,0.1-0.1,0.1-0.1,0.1L19.3,2.9z M18.8,3
	C18.9,2.9,19,3.1,19,3.1c0,0.3,0.3,0.3,0.3,0.4L18.8,3z M12,3.2c0.1-0.1,0.4-0.3,0.4-0.5c0,0.2,0.1,0.3,0.1,0.5
	c-0.1,0.3-0.3,0.3-0.4,0.5c-0.1,0.2,0,0.4,0.1,0.6L12,3.2z M18,1.9c-0.1,0-0.2,0-0.3,0.2c-0.1,0.2-0.3,0.4,0,0.6L18,1.9z M16.5,1.7
	c-0.2,0.3-0.3,0.5-0.4,0.8c0,0-0.1,0.1,0,0.2L16.5,1.7z M14.3,1.8c-0.1,0.3-0.1,0.7-0.2,0.9L14.3,1.8z M19.5,2.3
	c-0.2,0-0.3-0.1-0.4-0.2c-0.3-0.1-0.4,0.3-0.4,0.4L19.5,2.3z M13.1,1.6c0.1,0.1,0.1,0.4,0,0.5V1.6z M12.5,2.2L12.5,2.2L12.5,2.2
	c0.2-0.1,0.2,0.1,0.2,0.2c-0.2,0.1-0.3,0.3-0.5,0.2L12.5,2.2z M15.9,7c0.3,0,0.8,0,1.1-0.3C17.2,6.4,17,6,17,6s-0.2,0.7-1.1,0.7
	c-0.8,0-1-0.7-1-0.7s-0.3,0.4,0,0.7C15.1,7,15.6,7,15.9,7z"/>
<path class="st0" d="M8.5,20.9c0.1,0.3,0,0.5,0.1,0.8c0,0.1,0,0.3,0.2,0.3c-0.3-0.2-0.5-0.2-0.8-0.3c-0.2-0.1-0.2-0.3-0.3-0.5
	 M8.1,20.9c0,0.4,0.2,0.8,0.5,1L8.1,20.9z"/>
<path class="st0" d="M8.7,19.8c-0.1,0.5,0.4,1.4,1.1,1.4c-0.3-0.4,0.1-1.1-0.2-1.6 M9.1,19.7c0,0.1,0.1,0.5,0.2,0.8
	c0.1,0.2,0.2,0.4,0.3,0.6L9.1,19.7z"/>
<path class="st0" d="M6.8,6.9c0.1,0.1,0,0.3,0,0.3S6.6,7.3,6.6,7.4c-0.1,0.1-0.1,0.2,0,0.3 M8.9,5.7L8.9,5.7
	c0.3,0.2,0.6,0.4,0.9,0.4L8.9,5.7z M8.1,5.5c0.3,0,0.3,0.3,0.5,0.4L8.1,5.5z M6.4,5.2c-0.1-0.1,0-0.3,0.1-0.3V4.6L6.4,5.2z M5.9,5.2
	C5.7,5.1,6,4.9,6,4.6L5.9,5.2z M7.6,6c0,0,0,0.1-0.1,0.2c-0.1,0.2,0,0.3,0,0.5L7.4,6.8L7.6,6z M4.8,6.7C4.7,6.4,5,6.3,5.1,6L4.8,6.7
	z M4.4,6.8c0-0.2,0.1-0.3,0.2-0.4C4.7,6.2,4.8,6.1,4.9,6L4.4,6.8z M4.1,6.7c0.1-0.2,0.1-0.3,0.3-0.3L4.1,6.7z M5.4,7.9
	c0-0.1,0.1-0.3,0.1-0.3c0-0.2,0.2-0.2,0.2-0.3L5.4,7.9z M5.2,7.8c0-0.2,0.1-0.3,0.2-0.4L5.2,7.8z M4.9,7.9c0-0.3,0.2-0.3,0.3-0.6
	L4.9,7.9z M4.4,8c0.1-0.2,0.3-0.3,0.4-0.5L4.4,8z M3.9,8.1C4,8,4.1,7.9,4.2,7.7V7.5L3.9,8.1z M2.8,9.6C3,9.5,3.2,9.4,3.4,9.1
	L2.8,9.6z M1.9,9.6v0.2c0,0.2-0.2,0.3-0.4,0.3L1.9,9.6z M2.4,10.3c-0.1,0-0.4,0.4-0.4,0.5L2.4,10.3z M3.1,10.2
	c-0.5,0.5-0.8,0.8-0.8,0.9L3.1,10.2z M2.1,9.6c0-0.2,0.2-0.2,0.3-0.3C2.7,9,2.9,8.9,3.2,8.6C3.3,8.5,3.4,8.3,3.3,8L2.1,9.6z
	 M4.8,12.1C5,12,5.2,11.8,5.5,11.8L4.8,12.1z M5.2,10.3c0.1,0,0.1,0.2,0.1,0.2c0.3,0.2,0.6,0.2,0.5,0.5c0,0.1-0.1,0.2-0.2,0.3
	c-0.3,0.1-0.6,0.2-1,0.2c-0.1,0.1-0.3,0.2-0.3,0.2L5.2,10.3z M5.4,17.4C5.3,17.6,5,17.6,4.9,18L5.4,17.4z"/>
<path class="st0" d="M8,13.9c0.1,0.3-0.1,1,0.3,1.2 M8.5,13.3c0,0.1,0,0.2,0,0.4c0,0,0,0.1,0,0.2c0,0.2-0.1,0.8-0.1,1.4
	c-0.1-0.1-0.6-0.4-0.7-0.6c0-0.1-0.1-0.5,0-0.6L8.5,13.3z"/>
<path class="st0" d="M9,14.2c0,0.2,0,0.5,0.2,0.7c0.1,0.1,0.4,0.5,0.7,0.8c0.2-0.3,0.3-0.6,0.2-0.8c-0.1-0.3-0.3-0.6-0.3-0.8
	 M9.3,14.2c0,0.4,0.3,1,0.5,1.4L9.3,14.2z"/>
<path class="st0" d="M8.8,11.2c0,0.3,0.1,0.5,0.1,0.8s-0.2,0.6-0.2,0.9C8.3,12.5,8,12.2,8,11.7c0-0.1,0-0.2,0-0.4 M8.4,11.2
	c-0.3,0.6,0.2,1,0.3,1.6L8.4,11.2z"/>
<path class="st0" d="M8.7,7.4l0.2,0.1c0.3,0.2,0.8,0.4,0.8,0.8 M10.4,6.5c0.4,0.3,0.5,0.7,0.7,1.1l0.2,0.2L10.4,6.5z M4.8,9.7
	C4.9,9.6,4.9,9.6,5,9.6s0.3,0.1,0.3,0.2c0.1,0.1,0,0.2,0.1,0.3L4.8,9.7z M3.7,10.4c0,0,0.1-0.2,0.2-0.3c0.3-0.3,0.3-0.4,0.7-0.6
	c0.1,0,0.4-0.2,0.6-0.3c0.1,0,0.3-0.1,0.3-0.1L3.7,10.4z M6.7,14.2c0,0.3,0.1,0.6,0.1,0.8s-0.1,0.5-0.3,0.8L6.7,14.2z M6.6,12.4
	c-0.1,0.5-0.1,0.9-0.1,1.1L6.6,12.4z M7.3,13.9C7.1,13.8,7,13.7,7,13.5c-0.1-0.3,0.2-0.6,0.1-0.9C7,12.5,7,12.4,6.9,12.3L7.3,13.9z
	 M7.1,10.3c0.3,0,0.3,0.3,0.3,0.5L7.1,10.3z M9.8,11.5C9.9,11.7,10,12,10,12.3c0,0.1,0.1,0.1,0.1,0.2L9.8,11.5z M9.6,10.9
	c-0.1-0.2-0.1-0.4-0.2-0.6L9.6,10.9z M10.2,8.7c0.1,0.2,0.3,0.4,0.4,0.6c0.1,0.1,0.2,0.2,0.3,0.2L10.2,8.7z M10.2,7.9
	c0.3,0,0.6,0.1,0.7,0.3L10.2,7.9z M7.3,22.1C7,22.3,7.1,22.5,7,22.7l-0.1,0.2L7.3,22.1z M6.3,20.6C6.2,20.7,6,20.9,6,21.2L6.3,20.6z
	 M5.7,19.3c-0.2,0.3-0.1,0.7-0.2,1L5.7,19.3z M5.4,18.2C5.2,18.4,5,18.7,5,19L5.4,18.2z M10.4,20c-0.1,0-0.2,0.1-0.3,0.2L10.4,20z
	 M10.5,20.3c-0.2,0.1-0.4,0.2-0.5,0.3L10.5,20.3z M10.6,20.7c-0.2,0.2-0.4,0.2-0.5,0.4L10.6,20.7z M10.7,21.1
	c-0.1,0.2-0.4,0.2-0.6,0.4L10.7,21.1z M8.5,29.1c-0.1,0.2-0.3,0.4-0.4,0.5L8.5,29.1z M8.5,27.9c-0.1,0.2-0.3,0.5-0.5,0.8L8.5,27.9z
	 M8.5,27.2c-0.1,0.2-0.4,0.5-0.5,0.9L8.5,27.2z M8.3,26.4c-0.1,0.3-0.4,0.6-0.5,0.9L8.3,26.4z M8.2,25.8c-0.2,0.3-0.3,0.6-0.4,1
	L8.2,25.8z M8,25.3c-0.2,0.3-0.3,0.5-0.3,0.8L8,25.3z M7.7,24.3c-0.1,0.2-0.2,0.4-0.3,0.7L7.7,24.3z M9.6,28.7
	C9.3,29,9,29.2,8.7,29.5L9.6,28.7z M9.7,27.9C9.7,27.9,9.6,27.9,9.7,27.9c-0.3,0.3-0.6,0.5-0.8,0.8L9.7,27.9z M9.8,27.3
	c-0.3,0.2-0.4,0.4-0.6,0.7L9.8,27.3z M9.6,26.7c-0.3,0.3-0.5,0.7-0.8,0.9L9.6,26.7z M9.7,26.1c-0.4,0.2-0.7,0.7-0.9,1L9.7,26.1z
	 M9.6,25.5c-0.3,0.3-0.3,0.6-0.7,0.8L9.6,25.5z M9.5,24.8c-0.2,0.3-0.4,0.5-0.5,0.8l-0.2,0.1L9.5,24.8z M9.4,24.3
	c-0.3,0.3-0.5,0.6-0.7,0.9L9.4,24.3z M9.3,23.6c-0.3,0.3-0.5,0.7-0.8,1L9.3,23.6z M9,23.4c-0.3,0.2-0.6,0.5-0.8,0.8L9,23.4z M8.9,23
	c-0.4,0.3-0.7,0.5-0.9,1L8.9,23z M8.5,22.8C8.3,23,8.2,23.1,8,23.3L8.5,22.8z M11.6,27.9c-0.3,0.3-0.7,0.5-0.9,0.8
	c-0.2,0.1-0.3,0.3-0.4,0.3L11.6,27.9z M11.5,27.3c-0.2,0.2-0.4,0.4-0.6,0.7c-0.1,0.1-0.2,0.2-0.3,0.3L11.5,27.3z M11.4,26.5
	c-0.1,0.5-0.5,0.6-0.8,0.9L11.4,26.5z M11.4,26.2c-0.3,0.1-0.4,0.2-0.7,0.4c-0.1,0.1-0.3,0.2-0.4,0.3L11.4,26.2z M11.2,25.5
	c-0.3,0.3-0.6,0.5-0.8,0.8L11.2,25.5z M11.1,24.9c-0.2,0.2-0.4,0.4-0.6,0.6L11.1,24.9z M11,24.3c-0.2,0.2-0.4,0.3-0.7,0.6L11,24.3z
	 M11,23.5c-0.2,0.2-0.3,0.3-0.4,0.5L11,23.5z M10.9,22.9c-0.1,0-0.2,0.2-0.3,0.3c-0.3,0.2-0.3,0.5-0.6,0.7L10.9,22.9z M10.9,22.2
	c-0.2,0.2-0.6,0.5-0.8,0.7L10.9,22.2z M10.8,21.6c-0.2,0.2-0.3,0.3-0.5,0.5c-0.1,0.1-0.2,0.2-0.3,0.3L10.8,21.6z M7.9,24.7
	c-0.1,0.3-0.3,0.5-0.4,0.8L7.9,24.7z M6.9,21.1c-0.1,0.2-0.3,0.3-0.3,0.5c-0.1,0.2,0,0.3-0.1,0.5L6.9,21.1z M9.3,15.7
	c0.2,0.1,0.3,0.3,0.5,0.7L9.3,15.7z M5.7,16.6c-0.3,0.2-0.6,0.3-0.7,0.6L5.7,16.6z M7.1,8c0.1,0.1,0.1,0.2,0.1,0.2
	c0.1,0.2-0.1,0.3,0.1,0.4C7.4,8.8,7.6,8.8,7.6,9L7.1,8z M9.9,9.7h0.3c0.2,0.2,0.2,0.3,0.3,0.5s0.3,0.3,0.4,0.4L9.9,9.7z M10.3,11
	c-0.1,0.1,0,0.2,0,0.2c0.2,0.2,0.4,0.4,0.5,0.7L10.3,11z M9.6,13c0.2,0.4,0.5,0.7,0.6,1.1L9.6,13z M9.3,16.1c0,0-0.1,0.2,0,0.3
	c0.2,0.3,0.6,0.5,0.5,0.9L9.3,16.1z"/>
<path class="st0" d="M6.7,17c-0.2,0.3-0.2,0.7-0.3,1c0,0.2,0,0.4,0.1,0.6 M7,17.4c0.3,0.3-0.2,0.6-0.3,0.8c-0.1,0.2-0.1,0.3-0.1,0.5
	c-0.1-0.4-0.4-0.7-0.5-1.1c0-0.3,0.2-0.7,0.3-1L7,17.4z"/>
<path class="st0" d="M9,17.3c0.1,0.2,0.2,0.3,0.3,0.4c0.3,0.3,0.4,0.5,0.7,0.7"/>
<path class="st0" d="M6.8,19.2c0,0.3,0.4,0.7,0.4,0.9c0,0,0.1,0.2,0,0.2 M7.1,18.9c0.2,0.4,0.4,1,0.1,1.4C7.1,20.2,7,20,6.8,19.9
	c-0.2,0-0.4-0.3-0.4-0.6L7.1,18.9z"/>
<path class="st0" d="M3.4,7.3c0,0-0.3,0.3,0,0.6V7.3z"/>
<path class="st0" d="M4.3,7.5c0,0-0.3-0.1-0.5-0.1L4.3,7.5L4.3,7.5z"/>
<path class="st0" d="M26.5,5.7c-0.1,0.2,0,0.4-0.1,0.6C26.3,6.4,26,6.6,26,6.6s-0.2,0.1-0.3,0.2h-0.2 M23.1,7.3
	c-0.1,0.3-0.5,0.3-0.8,0.5c-0.2,0.3-0.2,0.6-0.2,0.8c0,0,0.2,0,0.2-0.1c0.2-0.2,0.5-0.1,0.8-0.2C23.3,8.2,23.4,8,23.6,8L23.1,7.3z
	 M25.2,4.8c-0.1,0.2,0,0.3,0.1,0.5c0.2,0.1,0.3,0.3,0.3,0.4c0.1,0.1,0.2,0.2,0.1,0.3L25.2,4.8z M26.2,5.9c-0.1,0.1-0.3,0-0.3,0
	c-0.1,0.1-0.2,0.3-0.2,0.4c-0.1,0-0.2,0-0.3,0.1L26.2,5.9z M23.7,6.5c-0.1,0.1-0.2,0.3-0.1,0.3l0.1,0.3c0,0.3,0.1,0.6,0.2,0.9
	c0-0.5,0.5-0.7,0.8-0.9c0.2-0.2,0.3-0.3,0.2-0.6H23.7z M23.6,6.3c-0.3,0.2-0.3,0.4-0.5,0.5c-0.3,0.1-0.5,0-0.8,0.1
	c-0.2,0-0.3,0.3-0.5,0.3c0.2-0.3,0.1-0.5,0.1-0.7V6.4L23.6,6.3z M23.5,8.3c0,0.2-0.1,0.3-0.3,0.3c-0.3,0.2-0.7,0.3-0.9,0.8
	c0,0-0.1,0.1-0.2,0.2c0.3-0.1,0.5-0.3,0.8-0.3h0.3C23.5,9.1,23.6,9,23.7,9L23.5,8.3z M25.3,11c0,0.2,0.1,0.3,0,0.4
	c-0.3,0.3-0.8,0.5-0.8,1v0.1c0-0.3,0-0.6,0.1-0.9c0-0.2,0.1-0.3,0.3-0.4L25.3,11z M25.5,8.2c0.1,0.1,0.2,0.4,0.1,0.5
	c-0.1,0.4-0.4,0.6-0.5,0.9L25.5,8.2z M24.8,10.2l-0.1,0.2c0,0,0.1,0.1,0,0.2c-0.1,0.2-0.2,0.2-0.3,0.3L24.3,11L24.8,10.2z M25.1,9.1
	c-0.1,0.1,0,0.4,0,0.5c0.1,0.3,0.4,0.4,0.3,0.8c-0.1,0.2-0.3,0.3-0.5,0.3l-0.1,0.1L25.1,9.1z M25.4,7.9c0.1,0.1,0.1,0.3,0,0.4
	s-0.2,0.1-0.3,0.2C25,8.6,25,8.8,25,8.9c-0.1,0.3-0.5,0.3-0.6,0.7c-0.1,0.2-0.3,0.3-0.2,0.5V10c-0.2-0.2-0.3-0.3-0.3-0.4
	c-0.2-0.2-0.2-0.3-0.2-0.5c0.1-0.2,0.2-0.3,0.3-0.4L25.4,7.9z M25.9,6.9v0.2c-0.1,0-0.3,0.2-0.3,0.2c-0.1,0.3-0.5,0.4-0.7,0.7
	L25.9,6.9z"/>
<path class="st0" d="M23.9,10.1l-0.2,0.1c-0.2,0.2-0.5,0.2-0.8,0.2c-0.2,0.1-0.4,0.2-0.5,0.3c0.1-0.1,0.4-0.2,0.5-0.5
	c0.2-0.3,0.2-0.6,0.4-0.7"/>
<path class="st0" d="M22.7,14c0.1,0.7-0.3,1-0.7,1.5c-0.1-0.8-0.4-1.2,0.1-1.7 M22.4,13.9c0,0.3-0.3,1.2-0.3,1.4L22.4,13.9z"/>
<path class="st0" d="M25.2,17.5c-0.2,0.3,0.3,0.7,0.4,1c0.1,0.2,0.1,0.3,0.1,0.5c0.1-0.4,0.4-0.7,0.5-1.1c0-0.2,0-0.4-0.2-0.6
	s-0.1-0.3-0.2-0.4 M29,9.6c-0.2-0.2-0.4-0.3-0.6-0.5L29,9.6z M29.9,9.6v0.2c0,0.1-0.1,0.1,0.1,0.2c0.1,0.1,0.2,0.1,0.3,0.1L29.9,9.6
	z M29.5,10.4c0.1,0,0.3,0.3,0.3,0.4L29.5,10.4z M28.7,10.2c0.5,0.5,0.8,0.8,0.8,0.9L28.7,10.2z M29.7,9.6c0-0.2-0.2-0.2-0.3-0.3
	c-0.3-0.3-0.5-0.4-0.8-0.7c-0.2-0.2-0.3-0.4-0.2-0.6L29.7,9.6z M27,12.1c-0.3-0.1-0.4-0.3-0.7-0.3L27,12.1z M26.6,10.3
	c-0.1,0-0.1,0.2-0.1,0.2c-0.3,0.2-0.6,0.2-0.5,0.5c0,0.1,0.1,0.2,0.2,0.3c0.3,0.1,0.6,0.2,1,0.2c0.1,0.1,0.3,0.2,0.3,0.3L26.6,10.3z
	 M25,6.9c-0.1,0.1,0,0.3,0,0.3s0.2,0.1,0.2,0.2c0.1,0.1,0.1,0.2,0,0.3L25,6.9z M24.8,20.5c-0.3,0.1-0.3,0.3-0.4,0.6
	c0,0.2,0.1,0.3,0.1,0.5L24.8,20.5z M23.2,20.3c0,0.2-0.1,0.4-0.3,0.6c-0.2,0.3-0.4,0.3-0.7,0.3c0.3-0.3,0-0.3,0.3-1.3L23.2,20.3z
	 M25.3,19.2v0.3c-0.1,0.3,0,0.5,0.1,0.7c0.1-0.2,0.3-0.3,0.4-0.4c0.1,0,0.2-0.1,0.3-0.2L25.3,19.2z"/>
<path class="st0" d="M27.4,8.1c-0.1-0.2-0.2-0.4-0.3-0.6"/>
<path class="st0" d="M27,8c0-0.3-0.2-0.3-0.3-0.6"/>
<path class="st0" d="M26.7,7.9c0-0.2-0.1-0.3-0.2-0.5"/>
<path class="st0" d="M26.2,8c0-0.3-0.2-0.4-0.2-0.6 M22.9,5.7L22.9,5.7c-0.4,0.2-0.6,0.4-0.9,0.4L22.9,5.7z M23.7,5.5
	c-0.3,0-0.3,0.3-0.5,0.4L23.7,5.5z M25.4,5.2c0.1-0.1,0-0.3-0.1-0.3V4.6L25.4,5.2z M25.9,5.2C26,5,25.8,4.9,25.8,4.6L25.9,5.2z
	 M24.3,6v0.2c0.2,0.2,0.1,0.3,0.1,0.5l0.1,0.1L24.3,6z M27,6.8c0.1-0.3-0.2-0.5-0.3-0.8L27,6.8z M27.4,6.8c0-0.3-0.2-0.6-0.4-0.8
	L27.4,6.8z"/>
<path class="st0" d="M23.5,12.4c-0.1,0.4-0.2,0.9-0.5,1 M23.3,12.1c-0.5,0.4-0.2,0.6-0.4,1.4c0.7-0.2,0.9-0.6,1-1.2L23.3,12.1z"/>
<path class="st0" d="M24,14.1c0,0.2-0.3,0.5-0.5,0.8c-0.1,0.2-0.1,0.4-0.2,0.5 M23.6,14c-0.2,0.2,0,0.3,0,0.5
	c-0.1,0.1-0.2,0.3-0.3,0.4c-0.2,0.3-0.1,0.5,0,0.6c0.2-0.2,0.4-0.3,0.7-0.6c0.3-0.2,0.3-0.5,0.5-0.8L23.6,14z"/>
<path class="st0" d="M23.2,7.7c-0.1,0-0.2,0.1-0.2,0.1c-0.3,0.2-0.8,0.4-0.8,0.8 M26.1,16.6c0.2,0.2,0.7,0.4,0.8,0.6L26.1,16.6z
	 M25.8,15.2c0,0.1,0.1,0.2,0.1,0.2c0.3,0.3,0.7,0.5,0.9,0.9L25.8,15.2z M25.8,14.5c0.2,0.1,0.4,0.3,0.5,0.3c0.1,0.1,0.2,0.3,0.3,0.3
	L25.8,14.5z M25.5,13.6c0,0,0.5,0.3,0.5,0.4L25.5,13.6z M24.7,8l-0.1,0.2c-0.1,0.2,0,0.3-0.1,0.4c-0.1,0.2-0.3,0.2-0.3,0.4L24.7,8z
	 M21.9,9.7h-0.3c-0.2,0.2-0.2,0.3-0.3,0.5c-0.1,0.2-0.3,0.3-0.3,0.3L21.9,9.7z M21.6,11.3c-0.3,0.3-0.4,0.4-0.5,0.8L21.6,11.3z"/>
<path class="st0" d="M23.4,21.3c-0.1,0.1-0.2,0.2-0.2,0.4c-0.1,0.3-0.3,0.6-0.6,0.8 M24.8,18.9c-0.3,0.3-0.6,0.6-0.9,1
	c0-0.3,0-1,0.1-1.2L24.8,18.9z M24.4,18.6c0,0.4-0.3,0.5-0.3,1.1L24.4,18.6z M23.1,21.2c-0.1,0.1-0.3,0.2-0.3,0.3
	c-0.1,0.3,0,0.5-0.1,0.8c0,0.1-0.1,0.3-0.2,0.3c0.3-0.2,0.5-0.2,0.8-0.3c0.2-0.1,0.2-0.3,0.3-0.5c0.1-0.1,0.2-0.2,0.3-0.3L23.1,21.2
	z"/>
<path class="st0" d="M22.9,19.9c-0.1,0.2-0.1,0.9-0.6,1.2 M22.3,11.5l-0.2,0.1c0,0.3,0,0.8-0.4,0.8L22.3,11.5z M22,11.1
	c-0.2,0.2-0.2,0.5-0.2,0.8c0,0.1-0.1,0.1-0.2,0.2L22,11.1z M22.2,10.5c-0.2,0-0.6,0-0.9,0.4L21.2,11L22.2,10.5z M21.9,8.5
	c-0.1,0-0.1,0.1-0.2,0.2c0,0.2-0.2,0.2-0.3,0.3c-0.2,0.2-0.2,0.3-0.3,0.4c-0.1,0.1-0.2,0.2-0.3,0.2L21.9,8.5z M21.6,7.9
	c-0.3,0-0.5,0.1-0.6,0.3l-0.1,0.2v0.1c-0.2,0.2-0.3,0.4-0.3,0.5L21.6,7.9z M22.9,7.1c-0.1,0.1-0.2,0.2-0.3,0.2
	c-0.2,0.1-0.3,0-0.5,0.1c-0.2,0-0.2,0.3-0.3,0.3L22.9,7.1z M24.5,21.8c0.3,0.2,0.2,0.7,0.5,1L24.5,21.8z M25.4,20.6
	c0.2,0.2,0.4,0.3,0.4,0.6L25.4,20.6z M21.5,19.6c0.2,0.1,0.4,0.2,0.5,0.3L21.5,19.6z M21.4,20.1c0.1,0.2,0.3,0.2,0.5,0.3L21.4,20.1z
	 M21.2,20.7c0.1,0.1,0.3,0.1,0.5,0.3L21.2,20.7z M21.1,21.1c0.2,0.3,0.4,0.3,0.6,0.5L21.1,21.1z M23.3,28.7c0.1,0.2,0.3,0.3,0.4,0.5
	L23.3,28.7z M23.3,27.8c0.1,0.2,0.3,0.4,0.4,0.7L23.3,27.8z M23.4,26.9c0.1,0.3,0.4,0.5,0.5,0.8L23.4,26.9z M23.5,26.4
	c0.1,0.3,0.4,0.5,0.5,0.8L23.5,26.4z M23.7,25.8c0.2,0.3,0.3,0.5,0.4,0.9L23.7,25.8z M23.8,25.3c0.2,0.2,0.4,0.8,0.4,0.7L23.8,25.3z
	 M24,24.3c0.2,0.2,0.3,0.3,0.4,0.6L24,24.3z M22.2,28.7c0.3,0.3,0.6,0.5,0.8,0.8L22.2,28.7z M22.2,28c0.3,0.2,0.5,0.4,0.7,0.7
	L22.2,28z M22.1,27.3c0.3,0.2,0.4,0.4,0.6,0.7L22.1,27.3z M22.2,26.7c0.3,0.3,0.5,0.7,0.8,0.9L22.2,26.7z M22.1,26.1
	c0.5,0.2,0.8,0.7,1,1L22.1,26.1z M22.2,25.5c0.3,0.3,0.3,0.6,0.7,0.8L22.2,25.5z M22.3,24.8c0.2,0.3,0.4,0.5,0.5,0.8l0.2,0.1
	L22.3,24.8z M22.4,24.3c0.3,0.3,0.5,0.6,0.7,0.9L22.4,24.3z M22.5,23.6c0.4,0.3,0.6,0.7,0.8,1L22.5,23.6z M22.8,23.4
	c0.3,0.2,0.6,0.5,0.8,0.8L22.8,23.4z M22.9,23c0.4,0.3,0.7,0.5,0.9,0.9L22.9,23z M23.3,22.8c0.2,0.2,0.3,0.3,0.5,0.5L23.3,22.8z
	 M20.2,27.9c0.3,0.3,0.6,0.5,0.9,0.8c0.1,0.1,0.3,0.3,0.4,0.3L20.2,27.9z M20.3,27.2c0.2,0.3,0.4,0.5,0.7,0.8
	c0.1,0.1,0.2,0.2,0.3,0.3L20.3,27.2z M20.4,26.5c0.1,0.5,0.5,0.6,0.8,0.9L20.4,26.5z M20.6,25.5c0.3,0.3,0.6,0.5,0.8,0.8L20.6,25.5z
	 M20.7,24.9c0.2,0.2,0.4,0.4,0.6,0.6L20.7,24.9z M20.8,24.3c0.2,0.2,0.4,0.3,0.6,0.6L20.8,24.3z M20.9,23.5c0.2,0.2,0.3,0.3,0.4,0.5
	L20.9,23.5z M20.9,22.9c0.1,0,0.2,0.2,0.3,0.3c0.3,0.2,0.3,0.5,0.6,0.7L20.9,22.9z M20.9,22.3c0.3,0.2,0.5,0.3,0.8,0.6L20.9,22.3z
	 M21,21.6c0.2,0.2,0.3,0.3,0.5,0.5c0.1,0.1,0.2,0.2,0.3,0.3L21,21.6z M23.9,24.7c0.1,0.3,0.3,0.5,0.4,0.8L23.9,24.7z M24.2,23.4
	c0.1,0.1,0.1,0.3,0.2,0.4c0.1,0.2,0.1,0.3,0.1,0.4L24.2,23.4z M26.1,18.9c0.2,0.5,0.4,0.8,0.2,1.3L26.1,18.9z M26.4,18.1
	c0.2,0.2,0.4,0.3,0.4,0.6L26.4,18.1z"/>
<path class="st0" d="M24.2,10.3c0,0.2-0.2,0.5-0.4,0.7"/>
<path class="st0" d="M24.9,12.8c-0.3,0.3-0.2,0.8-0.1,1.1"/>
<path class="st0" d="M25,14.9c0,0.2-0.1,0.4,0,0.6c0.1,0.2,0.3,0.6,0.3,0.7 M25.6,14.8c-0.1,0.3-0.2,0.4-0.3,0.7
	c-0.1,0.3,0,0.7,0.1,1c-0.3-0.3-0.6-0.5-0.8-0.8c-0.2-0.2-0.1-0.5,0-0.8L25.6,14.8z"/>
<path class="st0" d="M28.1,10.4c-0.3-0.4-1.5-1.1-2-1.1"/>
<path class="st0" d="M21.5,6.4C21,6.7,21,7.2,20.7,7.6c0,0.1-0.1,0.1-0.2,0.2 M25.4,20.8c-0.1,0.2-0.1,0.3-0.2,0.3
	c-0.3,0.1-0.3,0.3-0.3,0.6c0.1,0.1,0.2,0.3,0.3,0.5L25.4,20.8z M25.7,19.3c-0.1,0.2-0.3,0.4-0.3,0.7c0,0-0.1,0.2,0,0.2L25.7,19.3z
	 M25.3,17.1c0.2,0.4,0.4,0.5,0.5,1c0,0.2,0,0.4-0.1,0.6L25.3,17.1z M24.8,9.4l-0.2,0.2c-0.1,0.1-0.1,0.3,0,0.5L24.8,9.4z"/>
<path class="st0" d="M16,14.4c-0.2,0.4-0.7,0.6-1,0.7c-0.2,0.1-0.4,0.3-0.5,0.4c0.1-0.4,0-0.9,0.4-1.1 M14.6,15.3
	c0.2-0.3,0.3-0.4,0.5-0.6c0.1-0.1,0.3-0.2,0.4-0.3L14.6,15.3z"/>
<path class="st0" d="M14.6,17.2c-0.1,0.2-0.4,0.4-0.4,0.7c-0.1,0.3,0.1,0.6,0.1,0.9c0.3-0.3,1.2-0.8,1.1-1.3 M15.2,17.1
	c-0.1,0.1-0.8,1.3-0.9,1.5L15.2,17.1z"/>
<path class="st0" d="M14.7,21.1c-0.4,0.4-0.5,1-0.8,1.4c0.4-0.2,0.8-0.3,1.2-0.5c0.2-0.2,0.3-0.4,0.2-0.8 M11.3,13.1
	c0.2-0.3,0.5-0.5,0.8-0.9L11.3,13.1z M11.7,11.9c-0.1,0.4-0.4,0.8-0.5,1.2c0.1-0.1,0.8,0.2,1.1-0.5L11.7,11.9z M14.1,22.3
	c0-0.1,0.7-0.5,0.8-1L14.1,22.3z"/>
<path class="st0" d="M13,21c-0.5,0.5-0.1,1.2-0.3,1.6c0.2-0.3,0.8-0.8,1-1.1 M12.8,22.3c0.1-0.3,0.2-0.8,0.5-1L12.8,22.3z"/>
<path class="st0" d="M16.7,14.3c0.3,0.7,0.5,0.4,1,0.7c0.3,0.1,0.4,0.2,0.7,0.3c-0.2-0.3,0-0.6-0.1-0.8c-0.2-0.5-0.6-0.5-0.9-0.7
	c-0.1,0-0.1-0.2-0.2-0.2 M20.4,14.2c0.2,0.1,0.3,0.5,0.5,0.5L20.4,14.2z M20.3,13.8c0.2,0,0.2,0.1,0.3,0.2c0.2,0.3,0.2,0.7,0.6,1
	c-0.2-0.1-0.5-0.2-0.7-0.2c-0.2-0.1-0.3-0.5-0.6-0.6L20.3,13.8z M19.7,12.4c0.1,0.1,0.5,0.9,0.9,1L19.7,12.4z M19.9,12.1
	c0.5,0.3,0.5,0.8,0.6,1.1c0.1,0.2,0.1,0.3,0.3,0.3c-0.5,0-1.4,0.1-1.4-0.8L19.9,12.1z M19.5,18.7c0.4,0.3,0.3,0.5,0.5,0.8
	c0.1,0.1,0.3,0.4,0.3,0.5L19.5,18.7z M19.7,18.4c0.4,0.3,0.7,1.1,0.8,1.6c-0.5-0.1-0.9-0.5-1.1-0.9L19.7,18.4z M19.9,20.9
	c0.3,0.3,0.5,0.8,0.7,1L19.9,20.9z M19.5,20.9c0.1,0.9,0.8,0.7,1.1,1.2c0-0.8,0-1-0.5-1.8L19.5,20.9z M18.7,15.7
	c0.2,0.4,0.9,0.7,0.9,1.1L18.7,15.7z M19,15.4c0.5,0.4,0.8,1.1,0.7,1.7c0-0.4-0.5-0.6-0.7-0.8V15.4z M18.6,21.3
	c0.1,0.2,0.3,0.8,0.4,1L18.6,21.3z M18.2,21.3c0.1,0.6,0.6,0.9,0.9,1c-0.3-0.4,0.1-1-0.3-1.4L18.2,21.3z M16.7,13.9
	c0.3,0.1,0.3,0.3,0.5,0.4c0.2,0.1,0.3,0.1,0.5,0.2c0.3,0.1,0.5,0.5,0.6,0.7L16.7,13.9z"/>
<path class="st0" d="M14.8,23.5l-1.2,0.9 M21.3,16.8c-0.3-0.2-0.8-1-0.8-1.4L21.3,16.8z M18,22.9l0.4,0.4L18,22.9z M19.2,28.6l0.8,1
	L19.2,28.6z M19.1,27.4l0.8,1.2L19.1,27.4z M19.1,26.2l1.1,1.5L19.1,26.2z M19.2,25.1l1.2,1.9L19.2,25.1z M19.3,24l1.3,1.9L19.3,24z
	 M19.6,23.2l1.2,1.3L19.6,23.2z M20.3,22.5l0.5,0.5L20.3,22.5z M17,27.3l1.4,1.5L17,27.3z M16.7,25.7l1.5,1.4L16.7,25.7z M16.6,24.6
	l1.6,1.5L16.6,24.6z M16.9,24l1.3,1L16.9,24z M17.6,23.4l0.6,0.5L17.6,23.4z M12.5,28.4l-0.6,1L12.5,28.4z M12.6,27.4l-0.8,1
	L12.6,27.4z M12.4,26.6l-0.9,1.3L12.4,26.6z M12.6,25.2l-1.2,1.9L12.6,25.2z M12.5,24.1l-1.2,2.1L12.5,24.1z M12.1,23.3l-1,1.8
	L12.1,23.3z M11.8,22.7l-0.8,1L11.8,22.7z M11.4,22.1l-0.5,0.5L11.4,22.1z M13.3,29.4l1.3-1.3L13.3,29.4z M13.4,27.9l1.6-1.5
	L13.4,27.9z M15.2,25.1l-1.5,1.4L15.2,25.1z M15.2,24.2l-1.4,1.2L15.2,24.2z"/>
<path class="st0" d="M11.4,14.4c-0.3,0.2-0.5,0.5-0.5,1.3c0.4-0.1,1.1-0.4,1.3-0.7 M11.2,18.2C11,18.5,11,19,10.9,19.5L11.2,18.2z
	 M10.8,18.1c-0.3,0.3-0.2,0.7-0.1,1c0.1,0.2,0.1,0.3,0.1,0.5c0.1-0.3,0.4-0.3,0.6-0.6c0.1-0.1,0.1-0.2,0.1-0.3L10.8,18.1z
	 M13.9,15.1c-0.6,0.2-0.9,0.4-1.3,0.9L13.9,15.1z M13.9,14.7c-0.4,0.3-0.8,0.3-1.2,0.6c-0.1,0.1-0.1,0.7-0.2,0.8
	c0.3-0.3,1.2-0.6,1.4-0.8V14.7z M13,13.4c-0.3,0-0.5,0.9-0.7,1.1l-0.1,0.1c0.6-0.5,1.4-0.2,1.8-0.9L13,13.4z M13.6,13.3
	c-0.3,0.2-0.9,0.8-1.2,1.1L13.6,13.3z M10.9,17.6c0.3-0.3,0.7-0.8,0.9-1.2L10.9,17.6z M11.4,16.1c-0.1,0.1-0.3,0.3-0.3,0.5
	c-0.1,0.3,0,0.7-0.2,1.1c0.7-0.3,1.1-0.3,1.4-1.3L11.4,16.1z M11.6,14.8c-0.2,0.3-0.5,0.5-0.6,0.8L11.6,14.8z"/>
<path class="st0" d="M12.8,17.7c-0.3,0.2-0.7,0.5-0.7,0.9s0,0.7-0.1,1c0.2-0.3,0.5-0.5,0.8-0.7c0.2-0.1,0.4-0.4,0.4-0.7v0.1
	 M12.1,19.4c0.2-0.3,0.3-0.6,0.7-1L12.1,19.4z"/>
<path class="st0" d="M16.4,14.8c0.3,0.2,0.8,0.7,0.9,1.1c0.1,0.3,0,0.7,0.3,0.9c-0.5-0.2-0.9-0.5-1.4-0.8c-0.1-0.1-0.2-0.2-0.2-0.3
	 M18.6,13.2c0.1,0.3,0.6,0.5,0.7,0.8L18.6,13.2z M18,13.1c0.1,0.6,1,0.6,1.2,0.9c0.2-0.3-0.1-0.9-0.3-1.1L18,13.1z M16.5,15.5
	c0.3,0.3,0.5,0.8,0.9,1.1L16.5,15.5z"/>
<path class="st0" d="M20.4,10.5c0.2,0.1,0.2,0.3,0.3,0.3 M20.7,15.2c0.3,0.3,0.6,0.4,0.8,1.3L20.7,15.2z M20.4,11.7
	c0.2,0.3,0.3,0.4,0.5,0.6L20.4,11.7z M20.4,11.2c0.1,0,0.2,0.1,0.2,0.2c0.1,0.2,0.3,0.3,0.4,0.5L20.4,11.2z M20.4,10.8
	c0.2,0,0.2,0.3,0.3,0.3L20.4,10.8z"/>
<path class="st0" d="M20.1,17c0.4,0.2,0.3,0.5,0.5,0.9c0.1,0.3,0.3,0.5,0.5,0.7 M18.7,14.2c0,0.3,0.1,0.6,0.4,0.8
	c0.1,0.1,0.3,0.2,0.5,0.2c0.1,0,0.4,0.2,0.5,0.4c-0.2-0.5-0.2-0.9-0.6-1.5L18.7,14.2z M19.2,14.3c0.1,0.5,0.6,0.6,0.8,1L19.2,14.3z
	 M20,17.8c0.3,0.5,0.8,0.5,1.1,1c0.1-0.3,0.1-1.1-0.4-1.6L20,17.8z"/>
<path class="st0" d="M16.7,17.4c0.1,0.2,0.4,0.8,0.6,1 M16.3,17.1c0,0.1-0.1,0.4,0,0.5c0.1,0.3,0.8,0.7,1,0.9
	c-0.1-0.4,0-0.7-0.1-1.1c0-0.2-0.1-0.4-0.3-0.5L16.3,17.1z"/>
<path class="st0" d="M16,19c0,0.3,0.1,0.7,0.3,0.8c0.3,0.2,0.6,0.5,0.8,0.8c-0.1-0.4,0.1-0.8-0.1-1.3c-0.1-0.3-0.4-0.3-0.5-0.5
	 M16.4,19.1c0.3,0.4,0.5,0.7,0.7,1.3L16.4,19.1z"/>
<path class="st0" d="M13.7,19c-0.2,0.2-0.4,0.5-0.5,0.7s-0.3,0.6-0.3,0.8c0,0,0.8-0.4,1-0.6 M13.8,19.5c-0.3,0.2-0.5,0.6-0.8,0.8
	L13.8,19.5z"/>
<path class="st0" d="M15.1,19.1c-1.1,0.6-0.4,0.7-0.2,1.6c0.3-0.5,0.8-0.3,0.7-1.1 M14.8,20.5c0.2-0.2,0.1-0.5,0.1-0.7
	c0.1-0.2,0.3-0.3,0.3-0.5L14.8,20.5z"/>
<path class="st0" d="M15.6,22.8c-0.1,0.4,0.4,1.3,0.7,1.4 M20.9,19.4c0.3,0.1,0.3,0.2,0.4,0.3L20.9,19.4z M14.6,23.1
	c-0.2-0.1-0.2-0.3-0.4-0.3c-0.3-0.1-0.4,0-0.5,0L14.6,23.1z M16.8,22.9c0.1,0.1,0.1,0.3,0.3,0.3L16.8,22.9z M16.1,22.8
	c0.2,0.3,0.4,0.8,0.6,1L16.1,22.8z"/>
<path class="st0" d="M16.3,21.1c0.2,0.5,0.5,1,1.2,1.3c-0.3-0.4,0.2-1.1-0.3-1.6 M16.9,21.2c0.2,0.4,0.4,0.9,0.6,1.1L16.9,21.2z"/>
<path class="st0" d="M19.4,7.7c0,0.1,0.1,0.2,0.1,0.3c0.1,0.3,0.3,0.7,0.7,0.8 M19.6,2c0-0.1,0.1-0.1,0.2-0.1L19.6,2z M19.5,1.8
	c0.1-0.1,0.2-0.1,0.3-0.1h-0.1L19.5,1.8z M19.6,3.1c0.1,0.2,0.3,0.3,0.2,0.4c-0.2,0.2-0.2,0.3-0.3,0.5L19.6,3.1z M20,5.2
	c0.2,0.2,0,0.3,0,0.6V5.2z M19.8,5.3c0.1,0.3,0,0.7-0.3,0.9L19.8,5.3z M20,6.6v0.2C20,7,20,7,20,7.2c0.1,0.3,0.2,0.5,0.2,0.8L20,6.6
	z M19.2,11.2c0-0.2,0.2-0.4,0-0.6c0.3,0.1,0.4,0.3,0.5,0.4L19.2,11.2z M19.3,8.4c0.1,0.3-0.1,0.6,0.2,0.8c0.1,0.2,0.3,0.3,0.4,0.4
	C20,9.7,20,9.8,20,9.9L19.3,8.4z M18.2,10.5c0,0.3,0,0.6-0.1,0.8c-0.2,0.3-0.3,0.6-0.3,0.9L18.2,10.5z M16.4,11.2
	c0.2,0.1,0.1,0.4,0.2,0.5c0.2,0.3,0.3,0.7,0.3,1l-0.1,0.1L16.4,11.2z M15.1,11.7c0.2,0.2,0.3,0.5,0.3,0.8L15.1,11.7z M13.4,10.2v0.4
	c0.3,0.5,0.8,0.9,0.8,1.5L13.4,10.2z M12.1,10.7c0.2,0.2,0.3,0.4,0.3,0.6L12.1,10.7z M11.6,7.2c0.2,0.2-0.2,0.5-0.4,0.7L11.6,7.2z
	 M11,6.1c0.2,0.3,0.4,0.5,0.4,0.9L11,6.1z M11.4,5.1c-0.2,0.2-0.3,0.4-0.3,0.7c0.1,0.2,0.2,0.3,0.3,0.3V5.1z M19.3,7.2
	c-0.1-0.1-0.1-0.3-0.1-0.4c0.1-0.3,0.3-0.3,0.4-0.5C19.8,6.1,19.8,6,20,5.8c0.1-0.1,0.2-0.3,0.2-0.3L19.3,7.2z M19.5,4.3
	c0,0,0.1-0.1,0.1-0.2c0.2-0.3,0.3-0.4,0.4-0.8L19.5,4.3z M13,9.6c0,0.3-0.1,0.5,0,0.7c0.1,0.4,0.1,0.6,0.2,0.9l-0.1,0.3L13,9.6z
	 M14.3,10.8c0.3,0.4,0.5,1.1,0.2,1.7L14.3,10.8z M15.9,11.2c-0.2,0.1-0.1,0.3-0.1,0.3c0.2,0.3,0.6,0.6,0.5,1c0,0.2-0.1,0.4-0.3,0.4
	L15.9,11.2z M17.1,10.9c0.2,0.3,0,0.7,0.1,1.1c0.1,0.2,0.2,0.4,0.3,0.6L17.1,10.9z M18.4,12.1c0-0.4,0.3-0.7,0.3-1V11L18.4,12.1z
	 M19.3,9.9c0,0.2,0.2,0.4,0.4,0.5c0.2,0.1,0.4,0.3,0.5,0.4L19.3,9.9z"/>
<path class="st0" d="M7.2,15.8c0,0.7,0.4,1.1,0.8,1.6c0-0.3,0.2-0.6,0.3-0.8C8.4,16.2,8.2,16,8,15.8 M18.4,19.5
	c0.1,0.2,0.3,0.7,0.4,0.9L18.4,19.5z M18,19.5c0.1,0.3,0.3,0.5,0.5,0.7c0.1,0.1,0.4,0.3,0.5,0.5c-0.3-0.4,0.2-1-0.4-1.4L18,19.5z
	 M11.7,20.1c-0.4,0.3-0.3,0.9-0.4,1.4c0.5-0.4,1.2-0.6,1.3-1.3L11.7,20.1z M11.3,21.3c0.2-0.3,0.7-0.8,0.8-1L11.3,21.3z M7.7,16
	c0.2,0.3,0.3,0.8,0.2,1.1L7.7,16z"/>
<path class="st0" d="M20.7,19.9l0.5,0.7 M5.7,15.6c-0.3,0.2-0.6,0.3-0.7,0.6L5.7,15.6z"/>
<path class="st0" d="M7.8,17.9c0.4,0.6,0.5,1.2,0.7,1.6 M7.4,18c0,0.7,0.7,1.2,1.2,1.7c-0.1-0.3,0-0.6,0.1-0.9c0-0.5-0.2-1-0.3-1.2
	L7.4,18z"/>
<path class="st0" d="M28.1,9.4c-0.2-0.2-0.4-0.3-0.6-0.5"/>
<path class="st0" d="M24.5,16.5c-0.2,0.4-0.1,0.9-0.4,1.3 M24.1,16.5c-0.2,0.5,0,1.1,0,1.5c0.4-0.4,0.9-0.7,0.9-1.3L24.1,16.5z"/>
<path class="st0" d="M28.5,6.8c-0.1,0.4-0.5,0.5-0.8,0.6h0.2c0.2,0.1,0.3,0.3,0.4,0.4s0.1,0.2,0.3,0.3c-0.1,0,0-0.2,0-0.2
	c0.1-0.3,0.3-0.3,0.2-0.5l-0.2-0.3c0.1-0.1,0.3-0.2,0.2-0.3H28.5z M28.5,6.8c-0.1,0.4-0.5,0.5-0.8,0.6h0.2c0.2,0.1,0.3,0.3,0.4,0.4
	s0.1,0.2,0.3,0.3c-0.1,0,0-0.2,0-0.2c0.1-0.3,0.3-0.3,0.2-0.5c-0.1-0.1-0.2-0.3-0.2-0.3c0.1-0.1,0.3-0.2,0.2-0.3H28.5z M11.3,31.7
	c0,0,0.5-0.2,0.6-0.3c0.1-0.1,0.4-0.4,0.4-0.4L11.3,31.7z M19.3,30.2l0.9,1.1L19.3,30.2z M19.2,29.4l0.8,1L19.2,29.4z M17.3,32.4
	c0,0-0.5,0.4-0.4,0.9L17.3,32.4z M17.1,31.2l0.6,0.7L17.1,31.2z M17.1,29.8l1,1.1L17.1,29.8z M17.2,28.9l1.3,1.1L17.2,28.9z
	 M12.4,30.2L11.7,31L12.4,30.2z M12.5,29.4l-0.6,0.8L12.5,29.4z M14.7,31.2l-0.6,0.7L14.7,31.2z M14.7,29.8l-1,1.1L14.7,29.8z
	 M14.5,28.9L13.3,30L14.5,28.9z M18.3,33.1c0.2-0.3,0.2-0.9,0-1.1V33.1z M20.7,33.9c0.1-0.2,0.1-0.4,0.1-0.6
	c-0.1-0.3-0.3-0.5-0.4-0.6L20.7,33.9z M19.5,31.5c0.1,0.3,0.3,0.5,0.5,0.7c0.2,0.3,0.4,0.3,0.4,0.6c-0.2-0.2-0.7,0.1-0.8,0.4
	L19.5,31.5z M18.8,31.2c0,0.2,0.2,0.3,0.3,0.4c0,0.2,0.2,0.3,0.2,0.3c0,0.2,0,0.3,0.1,0.3c0,0.3,0.1,0.4,0.3,0.6
	c0,0.1,0.1,0.2,0.1,0.3s0,0.2,0,0.4c0.1,0.3,0.3,0.4,0.5,0.5L18.8,31.2z M18.7,34.1c-0.3,0-0.4-0.3-0.4-0.6c0.1-0.5,0.8-0.7,1.2-0.4
	c0.4,0.2,0,0.9-0.2,0.9L18.7,34.1z M17.1,33.8c-0.3-0.5,0.1-0.9,0.5-1c0.2,0,0.5,0.1,0.6,0.3c0,0.1,0.2,0.9-0.3,0.8L17.1,33.8z
	 M13.5,33.1c0-0.3,0.1-0.4,0.2-0.7L13.5,33.1z M11.1,33.9c-0.3-0.1-0.2-0.6,0-0.7c0-0.2,0.2-0.4,0.4-0.5L11.1,33.9z M12.4,31.4
	L12.4,31.4c-0.2,0.3-0.5,0.3-0.6,0.6c-0.3,0.2-0.4,0.4-0.4,0.8c0.3-0.2,0.7,0,0.8,0.4L12.4,31.4z M13,31.2c0,0.2-0.2,0.3-0.3,0.4
	c0,0.2-0.2,0.3-0.2,0.3c0,0.2-0.1,0.3-0.1,0.3c-0.1,0.3-0.2,0.4-0.3,0.6C12,33,12,33.1,12,33.3c-0.1,0.3-0.3,0.6-0.7,0.6L13,31.2z
	 M13.3,34c0.2,0,0.3-0.1,0.3-0.3c0-0.3-0.1-0.7-0.4-0.8c-0.3,0-0.5-0.1-0.8,0.1c-0.3,0.1-0.3,0.8,0,0.9L13.3,34z M14.7,33.8
	c0.3-0.2,0.1-0.7-0.1-1c-0.5-0.2-1.2,0.2-0.9,0.8c0.1,0.2,0.1,0.3,0.4,0.4L14.7,33.8z M22.2,34.1c-0.1-0.2-0.2-0.3-0.3-0.5
	L22.2,34.1z M22.7,34.1c-0.1-0.2-0.1-0.3-0.2-0.5L22.7,34.1z M23.3,34.2C23.2,34,23,33.9,23,33.6L23.3,34.2z M23.7,34.2
	c-0.1-0.1-0.2-0.3-0.3-0.5L23.7,34.2z M24.4,34.3c-0.3-0.1-0.4-0.3-0.5-0.4L24.4,34.3z M23.8,31.5c0.2,0.1,0.4,0.1,0.5,0.1
	L23.8,31.5z M23.6,30.8c0.2,0.1,0.4,0.1,0.5,0.2L23.6,30.8z M23.3,30.2c0.3,0,0.4,0.1,0.6,0.2L23.3,30.2z M23.3,29.6
	c0.2,0.1,0.4,0.2,0.5,0.4L23.3,29.6z M22.2,30.4c0.1,0.1,0.4,0.2,0.5,0.3c0.2,0.3,0.4,0.4,0.6,0.5L22.2,30.4z M22.2,29.8
	c0.2,0.1,0.4,0.3,0.6,0.4c0.1,0.2,0.3,0.3,0.4,0.4L22.2,29.8z M22.2,29.3c0.3,0.2,0.6,0.4,0.8,0.7L22.2,29.3z M20.8,31.3
	c0.3,0.3,0.9,0.7,1.3,0.9L20.8,31.3z M22.1,31.7c-0.4-0.3-0.8-0.7-1.4-1L22.1,31.7z M20.6,30.1c0.4,0.3,0.8,0.5,1.3,0.8L20.6,30.1z
	 M21.6,29.8c-0.5-0.4-1.1-0.8-1.6-1.4L21.6,29.8z M22.4,33.4c0-0.2-0.2-0.4-0.4-0.5c-0.4-0.3-0.9-0.7-1.2-1L22.4,33.4z M22.5,30.9
	c0.3,0.5,0.3,1,1,1.1c0.3,0.1,0.6,0.1,0.8,0.2c0.3,0.3,0.3,0.7,0.3,0.9c0,0,0.7-0.1,0.8,0.2c0,0.4,0,0.7-0.2,1L22.5,30.9z M23.3,31
	c0,0.3,0.1,0.4,0.4,0.8c0.1,0.2,0.1,0.3,0.4,0.3c0.2,0.1,0.8,0.2,0.8,0.3c0.3,0.3,0.3,0.7,0.3,0.9c0,0,0.2,0,0.4,0
	c0.3,0,0.4,0.5,0.3,0.8c-0.1,0.2-0.3,0.3-0.2,0.5L23.3,31z M9.7,34.1c0.1-0.1,0.1-0.3,0.2-0.4L9.7,34.1z M9.1,34.2
	c0.1-0.2,0.2-0.3,0.2-0.5L9.1,34.2z M8.6,34.2c0-0.2,0.3-0.3,0.3-0.6L8.6,34.2z M7.9,34.3C8,34.2,8.1,34,8.2,33.7L7.9,34.3z
	 M7.2,34.3c0.3-0.1,0.4-0.3,0.5-0.4L7.2,34.3z M10.7,32.5c-0.3,0.3-0.7,0.6-1,0.9L10.7,32.5z M8.3,30.5c-0.2,0.1-0.4,0.1-0.6,0.3
	L8.3,30.5z M8.5,29.9c-0.3,0-0.5,0.1-0.6,0.3L8.5,29.9z M9.6,30.4c-0.2,0.1-0.4,0.2-0.5,0.3C8.9,31,8.8,31,8.5,31.2L9.6,30.4z
	 M9.6,29.8c-0.3,0.1-0.4,0.3-0.6,0.4c-0.1,0.2-0.3,0.3-0.4,0.4L9.6,29.8z M9.6,29.3C9.3,29.5,9,29.7,8.7,30L9.6,29.3z M9.7,31.9
	c0.5-0.3,0.9-0.6,1.3-0.9L9.7,31.9z M11.2,30.3c-0.4,0.3-0.8,0.5-1.3,0.8L11.2,30.3z M11.4,29.5c-0.3,0.2-0.6,0.4-0.9,0.6L11.4,29.5
	z M10.2,29.8c0.5-0.4,1.1-0.8,1.5-1.4L10.2,29.8z M9.5,32.9c0.4-0.4,0.7-0.5,0.8-0.8c0.2-0.2,0.5-0.4,0.6-0.5L9.5,32.9z M9.3,30.9
	c-0.2,0.3-0.2,0.6-0.3,0.8c-0.2,0-0.3,0.3-0.6,0.3c-0.2,0.1-0.8,0.2-0.8,0.3c-0.3,0.3-0.3,0.7-0.3,0.9c0,0-0.3,0-0.5,0
	c-0.3,0-0.3,0.3-0.3,0.6c0,0.2,0,0.4,0.2,0.6L9.3,30.9z M8.5,31c0,0.3-0.1,0.4-0.4,0.8C8,31.9,8,32,7.6,32c-0.2,0.1-0.8,0.2-0.8,0.3
	c-0.3,0.3-0.3,0.7-0.3,0.9c-0.3,0-0.5,0-0.6,0.1s-0.2,0.4-0.1,0.6C5.9,34.1,6,34.3,6,34.5L8.5,31z M7.7,23.1
	c-0.1,0.2-0.2,0.4-0.3,0.7c-0.1,0.2-0.1,0.3-0.1,0.4L7.7,23.1z M27.1,9.7c-0.1-0.1-0.2-0.1-0.3-0.1c-0.1,0-0.3,0.1-0.3,0.2
	c-0.1,0.1,0,0.2-0.1,0.3L27.1,9.7z M29,9.6c-0.2-0.2-0.4-0.3-0.6-0.5L29,9.6z M28.9,9.3c0-0.2-0.3-0.1-0.3-0.2V9L28.9,9.3z M27,12.1
	c-0.3-0.1-0.4-0.3-0.7-0.3L27,12.1z M28.7,11.2c0,0-0.1-0.4-0.3-0.4c0,0-0.2,0.3-0.3,0.8C28.1,11.5,28.4,11.3,28.7,11.2z M28.5,11.8
	c0.2-0.2,0.1-0.3,0.2-0.5c-0.2,0.1-0.3,0.2-0.5,0.3C28.3,11.8,28.4,11.8,28.5,11.8z M28.1,11.7c0,0-0.3-0.2-0.4-0.2
	c-0.1-0.1-0.2-0.3-0.3-0.4c-0.2,0-0.5-0.2-0.6-0.2c0-0.2,0.2-0.1,0.2-0.3s0-0.6,0.1-0.7c0.2-0.1,0.4,0.2,0.7,0.3
	c0.3,0.2,0.6,0.4,0.8,0.7l0.1,0.5L28.1,11.7z M27.6,7.5c0,0,0.3-0.1,0.5-0.2L27.6,7.5L27.6,7.5z M28.4,7.3c0,0,0.2,0.3,0,0.6V7.3z
	 M27.7,6.7c-0.1-0.2-0.1-0.3-0.3-0.3L27.7,6.7z M27.9,8c-0.1-0.2-0.2-0.3-0.3-0.4V7.4L27.9,8z M27.7,6.7c-0.1-0.2-0.1-0.3-0.3-0.3
	L27.7,6.7z M25.4,12.9c0.1,0.1,0.3,0.2,0.5,0.3L25.4,12.9z"/>
<path class="st0" d="M16.4,42.5c2.1,0,3.9-1.8,3.9-3.9c0-2.2-1.8-3.9-3.9-3.9c-2.2,0-3.9,1.7-3.9,3.9C12.5,40.7,14.2,42.5,16.4,42.5
	z"/>
<path class="st0" d="M16.4,34.7l-0.1,1.5c0,0.2,0,0.8,0,1.4l0.1,0.3h0.1l0.1-0.5v-1.2L16.4,34.7z M15.6,38.9L15.6,38.9L15.6,38.9z
	 M15.8,39.1L15.8,39.1L15.8,39.1z M13,40.6l1.4-0.6c0.2-0.1,0.7-0.5,1.2-0.7l0.2-0.2c0,0,0,0,0-0.1l-0.5,0.1l-1,0.6L13,40.6z
	 M17.2,37.5l0.6-0.9c0-0.1,0.6-1.4,0.6-1.4s-0.7,0.8-0.9,1.3l-0.6,1.1l-0.1,0.3l0,0c0.1,0,0.1,0.1,0.1,0.1s-0.1,0-0.1-0.1
	C16.9,37.8,17,37.7,17.2,37.5L17.2,37.5z M16.9,38L16.9,38L16.9,38z M16,39.3L16,39.3L16,39.3z M13,36.7c0,0,0.8,0.6,1.2,0.8
	l1.1,0.6l0.4,0.1c0,0,0-0.1,0.1-0.1l-0.2-0.2l-1.2-0.7C14,37.1,13,36.7,13,36.7z M14.4,35.2l0.6,1.3l0.7,1.2l0.2,0.2H16l-0.1-0.5
	l-0.6-1L14.4,35.2z M17.4,38.2l1.1-0.6c0.4-0.3,1.2-0.9,1.2-0.9s-1,0.4-1.4,0.6l-1.1,0.6C17.1,38,17,38.1,17,38.1l-0.1,0.1v0.1
	L17.4,38.2z M17.5,38.7c0.5,0,1,0,1.2,0c0.4,0,1.5-0.1,1.5-0.1s-1.1-0.2-1.5-0.2h-1.2l-0.4,0.1v0.1C17.3,38.7,17.4,38.7,17.5,38.7z
	 M17.4,39.4l1,0.6l1.4,0.6l-1.2-0.9L17.5,39c-0.1,0-0.3-0.1-0.4-0.1c0,0,0,0,0,0.1L17.4,39.4z M16.8,39.6c0.3,0.4,0.5,0.9,0.6,1.1
	l0.9,1.2l-0.6-1.4l-0.6-1l-0.3-0.3c0,0-0.1,0-0.1,0.1L16.8,39.6z M16.3,39.4l-0.1,0.3V41l0.1,1.5l0.2-1.5v-1.2l-0.1-0.4
	C16.4,39.4,16.3,39.4,16.3,39.4z M12.5,38.6l1.4,0.1h1.4l0.3-0.1v-0.1l-0.4-0.1h-1.3L12.5,38.6z"/>
<path class="st0" d="M16,38.9c0.1,0.1,0.2,0.2,0.3,0.2c0.3,0,0.4-0.3,0.4-0.4c0,0,0-0.2-0.1-0.2"/>
<path class="st0" d="M13.7,41.3l1.1-0.9l1.2-1.2c-0.1-0.1-0.2-0.1-0.2-0.2l-1.1,1.2L13.7,41.3z M12.6,39.6c0,0,1-0.1,1.4-0.2
	l1.6-0.4c0-0.1-0.1-0.2-0.1-0.3L14,39.1L12.6,39.6z M15.4,42.3l0.5-1.4l0.4-1.6c-0.1,0-0.2,0-0.3-0.1l-0.4,1.6L15.4,42.3z
	 M15.9,39.2L15.9,39.2L15.9,39.2z M14.4,42l0.8-1.2l0.6-1l0.1-0.5H16c0,0-0.1,0-0.1-0.1l-0.2,0.2L15,40.6L14.4,42z M17.1,38.9
	c0.5,0.1,1,0.3,1.6,0.4c0.5,0.1,1,0.2,1.6,0.3l-1.4-0.5c-0.3-0.1-1-0.3-1.6-0.5C17.1,38.7,17.1,38.8,17.1,38.9z M12.6,37.6l1.4,0.5
	l1.6,0.5c0-0.1,0-0.2,0.1-0.3l-1.6-0.4C13.7,37.8,12.6,37.6,12.6,37.6z M17.1,38.6c0.6-0.2,1.4-0.4,1.6-0.5c0.4-0.1,1.4-0.5,1.4-0.5
	s-1.1,0.2-1.5,0.3c-0.3,0.1-1,0.3-1.6,0.4C17.1,38.4,17.1,38.5,17.1,38.6z M16.8,39.2l1.2,1.2l1.2,0.9l-1-1.1L17,39
	C17,39.1,16.9,39.2,16.8,39.2z M17,38.2c0.4-0.4,1-1,1.2-1.2c0.3-0.3,1-1.2,1-1.2s-0.9,0.7-1.2,1c-0.1,0.1-0.8,0.8-1.2,1.1
	C16.9,38,17,38.1,17,38.2z M16.7,37.9l0.4-1.6l0.3-1.5l-0.5,1.4l-0.5,1.6C16.5,37.8,16.6,37.9,16.7,37.9z M13.7,35.8l0.9,1.1
	l1.2,1.2c0.1-0.1,0.1-0.1,0.2-0.2l-1.2-1.3L13.7,35.8z M15.4,34.8l0.2,1.4l0.5,1.7c0.1,0,0.2-0.1,0.3-0.1c-0.2-0.6-0.4-1.4-0.5-1.7
	C15.8,35.8,15.4,34.8,15.4,34.8z M16.4,39.4c0.2,0.6,0.4,1.4,0.5,1.6c0.1,0.3,0.5,1.4,0.5,1.4s-0.2-1.1-0.3-1.4
	c-0.1-0.3-0.3-1-0.4-1.6C16.6,39.3,16.5,39.4,16.4,39.4z"/>
<path class="st0" d="M24,43.3l0.4,0.8L24,43.3z M23.3,43.3l0.4,0.8L23.3,43.3z M22.7,43.4l0.4,0.8L22.7,43.4z M21.9,43.3l0.4,0.8
	L21.9,43.3z M21.2,43.4l0.4,0.8L21.2,43.4z M20.4,43.4l0.4,0.8L20.4,43.4z M19.6,43.4l0.4,0.8L19.6,43.4z M18.8,43.4l0.4,0.7
	L18.8,43.4z M18,43.4l0.4,0.8L18,43.4z M17.2,43.4l0.4,0.8L17.2,43.4z M16.4,43.3l0.4,0.8L16.4,43.3z M15.6,43.3l0.4,0.8L15.6,43.3z
	 M14.8,43.3l0.4,0.8L14.8,43.3z M14,43.4l0.4,0.8L14,43.4z M13.3,43.4l0.4,0.8L13.3,43.4z M12.4,43.3l0.4,0.8L12.4,43.3z M11.7,43.4
	l0.4,0.8L11.7,43.4z M10.9,43.4l0.4,0.7L10.9,43.4z M10.1,43.4l0.4,0.8L10.1,43.4z M9.3,43.4l0.4,0.8L9.3,43.4z M8.4,43.4l0.4,0.8
	L8.4,43.4z M7.7,43.4l0.4,0.8L7.7,43.4z M21.7,37.2c-0.1,0.2-0.1,0.3,0,0.4c0.1,0.2,0.1,0.4,0,0.6V37.2z M22.6,37.1
	c0,0.1-0.2,0.2-0.3,0.2L22.6,37.1z M22.1,37c0-0.1,0.1-0.2,0.2-0.2s0.2,0,0.2,0.2C22.4,37,22.2,37.1,22.1,37z M23.8,40.2
	c0.1,0.2,0.4,0.3,0.6,0.4L23.8,40.2z M23.7,40.7c0.1-0.1,0.1-0.3,0.1-0.5s0.1-0.3,0.2-0.5L23.7,40.7z M25.2,40.1
	c0-0.1,0.1-0.2,0.2-0.3s0.1-0.2,0.2-0.3L25.2,40.1z M22.7,40.7c0.3-0.2,0.5-0.6,0.5-1L22.7,40.7z M22,40.3c0.3,0,0.6-0.4,0.8-0.8
	L22,40.3z M21.5,38.5c0.2,0.1,0.6,0.1,0.8-0.2L21.5,38.5z"/>
<path class="st0" d="M7.3,44.1H25l-0.5-0.8c-0.3,0-0.8,0-1.2,0c-1.6,0-4,0.1-7.4,0c-2.9,0-6.3,0-8.3,0L7.3,44.1z"/>
<path class="st0" d="M20.4,35.5c-0.1,0-0.2-0.1-0.2-0.2c0-0.1,0.1-0.2,0.2-0.2s0.2,0.1,0.2,0.2C20.5,35.4,20.4,35.5,20.4,35.5z
	 M21,36.2c-0.1,0-0.2-0.1-0.2-0.2c0-0.1,0.1-0.2,0.2-0.2s0.2,0.1,0.2,0.2C21.1,36.1,21.1,36.2,21,36.2z M20.9,35.4
	c-0.1,0-0.2-0.1-0.2-0.2c0-0.1,0.1-0.2,0.2-0.2c0.2,0,0.2,0.1,0.2,0.2C21.2,35.3,21.1,35.4,20.9,35.4z M25.1,37.5
	c0-0.2,0.1-0.3,0.3-0.3c0.1,0,0.2,0.1,0.2,0.3C25.5,37.9,25.1,37.8,25.1,37.5z M25.4,37c-0.2,0-0.3-0.2-0.3-0.3
	c0-0.2,0.1-0.2,0.3-0.2c0.1,0,0.2,0.1,0.2,0.2C25.5,36.8,25.4,37,25.4,37z M25.4,36.2c-0.2,0-0.3-0.1-0.3-0.3s0.1-0.3,0.3-0.3
	c0.1,0,0.2,0.1,0.2,0.3C25.6,36.2,25.5,36.2,25.4,36.2z M24.6,37c-0.1,0-0.3-0.1-0.3-0.3s0.2-0.2,0.3-0.2c0.2,0,0.3,0.1,0.3,0.2
	C24.8,36.9,24.8,37,24.6,37z M24.6,36.2c-0.1,0-0.3-0.1-0.3-0.3c0-0.1,0.2-0.3,0.3-0.3c0.2,0,0.3,0.2,0.3,0.3
	C24.9,36.2,24.8,36.2,24.6,36.2z M24.1,35.3c0-0.2,0.1-0.3,0.3-0.3c0.3,0,0.3,0.5,0,0.5C24.2,35.5,24.1,35.5,24.1,35.3z M20.1,42.2
	C20,42.2,20,42.1,20,42s0.1-0.2,0.2-0.2s0.2,0.1,0.2,0.2C20.3,42.1,20.2,42.2,20.1,42.2z M20.8,42.2c-0.1,0-0.2-0.1-0.2-0.2
	c0-0.1,0.1-0.2,0.2-0.2S21,41.9,21,42C20.9,42.1,20.8,42.2,20.8,42.2z M20.7,41.5c-0.1,0-0.2-0.1-0.2-0.3c0-0.1,0.1-0.2,0.2-0.2
	s0.2,0.1,0.2,0.2C20.8,41.4,20.7,41.5,20.7,41.5z M21.2,41.5c-0.1,0-0.2-0.1-0.2-0.2c0-0.2,0.1-0.3,0.2-0.3c0.2,0,0.3,0.1,0.3,0.3
	C21.5,41.4,21.4,41.5,21.2,41.5z M21.4,40.6c-0.1,0-0.2-0.1-0.2-0.2c0-0.1,0.1-0.2,0.2-0.2c0.2,0,0.3,0.1,0.3,0.2
	C21.6,40.6,21.5,40.6,21.4,40.6z"/>
<path class="st0" d="M22.2,35c0,0-0.5,0.4-0.3,0.7c0,0,0.5,0.1,0.6,0.2c0,0,0.3-0.1,0-0.5c0,0,0.4-0.1,0.4,0.3
	c0.1,0.4-0.2,0.5-0.2,0.5s0.3,0.3,0.4,0.4v0.5c0,0.1-0.4,0.7-0.6,0.8h-0.4c0,0-0.4,0.3-0.6,0.3h-0.4c-0.1-0.1-0.3-0.4-0.3-0.4
	s0.1-0.2,0.3-0.3c0.2-0.2,0.2-0.3,0.3-0.5c0-0.2-0.2-0.4,0-0.7c0.3-0.2,0.1-0.3,0.1-0.3v-0.2c0,0-0.2-0.2,0-0.4
	C21.9,35.1,21.9,35.1,22.2,35z"/>
<path class="st0" d="M27.6,41.3L27.6,41.3c-0.3-0.2-0.4-1.3-0.4-2.5c0-1.4,0.2-2.5,0.4-2.5c0.1,0.1,0.3,0.8,0.3,1.8
	c-0.2-0.1-0.2,0.4-0.2,0.7c0,0.4,0.1,0.9,0.2,0.8C27.9,40.5,27.7,41.3,27.6,41.3z M18.7,42.5l8.1-0.1c0.3,0,0.4-0.1,0.5-0.1
	c-0.1,0-0.2-0.1-0.2-0.1c-0.3-0.4-0.6-1.7-0.6-3.5c0-1.5,0.2-2.9,0.5-3.4c-2.1-0.5-5.6-0.7-8.2-0.7c1.3,0.8,2.1,2.3,2.1,3.9
	C20.9,40.3,20.1,41.8,18.7,42.5z M25.9,40.7c0,0.1,0,0.6,0.1,0.7l0.2,0.3c0.2,0.2,0.3,0.4,0.3,0.4l0.2,0.3h-0.3
	c-0.2-0.1-0.3-0.3-0.3-0.5c-0.2-0.1-0.4-0.4-0.4-0.6C25.6,41.1,25.7,40.8,25.9,40.7z M23.2,36.9c0,0,0,0.2,0.1,0.2
	c0.1,0.1,0.3,0.1,0.5,0.1s0.3,0,0.4,0.1s0.1,0.4,0.2,0.5c0.1,0.4,0.3,0.5,0.7,0.6c0.3,0.1,0.9,0.4,1,0.8c0.1,0.3,0.1,1.1-0.2,1.3
	c-0.2,0.3-0.4,0.6-0.5,0.8c-0.1,0.1-0.6,1.2-0.6,1.1h-0.6c0.1-0.2,0.4-0.5,0.5-0.8c0.1-0.2,0.1-0.4,0.2-0.6c0.1-0.1,0.2-0.3,0.5-0.6
	c0,0-0.2,0.1-0.3,0.1c-0.3,0-0.7,0.3-0.8,0.3c-0.3,0-0.6-0.2-0.6-0.2l-0.2,0.3c0,0,0.1,1,0,1.1c0,0.1,0,0.3,0,0.3H23l0.1-0.4v-0.7
	c0,0-0.3-0.7-0.4-0.8l0.1,0.2c0,0.2-0.5,0-0.6-0.1c0,0-0.1-0.1-0.1-0.2c0-0.3-0.1-0.4-0.2-0.6c-0.1-0.1-0.1-0.3-0.2-0.5
	c-0.1-0.3-0.2-0.8-0.1-1l0.1-0.2c0.2-0.1,0.6-0.3,0.6-0.3h0.4C22.9,37.6,23.3,37,23.2,36.9L23.2,36.9L23.2,36.9z M22.7,40.8
	L22.7,40.8L22.7,40.8L22.7,40.8L22.7,40.8z"/>
<path class="st0" d="M28.1,39.5c0.1,0,0.2-0.3,0.2-0.8c0-0.4-0.1-0.8-0.2-0.8s-0.2,0.3-0.2,0.8S28,39.5,28.1,39.5z M28.1,39.5
	c-0.1,0-0.2-0.3-0.2-0.8c0-0.4,0.1-0.8,0.2-0.8h-0.3c-0.1,0-0.2,0.3-0.2,0.8c0,0.4,0.1,0.8,0.2,0.8H28.1z"/>
<path class="st0" d="M27.3,42.3c0.4,0,0.6-1.2,0.7-2.8h-0.1c-0.1,0-0.2-0.3-0.2-0.8c0-0.4,0.1-0.8,0.2-0.8H28
	c-0.1-1.6-0.3-2.8-0.7-2.8c-0.4,0-0.8,1.6-0.8,3.6C26.5,40.8,26.8,42.3,27.3,42.3z"/>
<path class="st0" d="M4,41.3L4,41.3c0.3-0.2,0.4-1.3,0.4-2.5c0-1.4-0.2-2.5-0.4-2.5c-0.1,0.1-0.3,0.8-0.3,1.8
	c0.2-0.1,0.2,0.4,0.2,0.8c0,0.4-0.1,0.9-0.2,0.8C3.7,40.6,3.9,41.3,4,41.3z"/>
<path class="st0" d="M3.5,39.6c-0.1,0-0.2-0.3-0.2-0.8c0-0.4,0.1-0.8,0.2-0.8s0.2,0.3,0.2,0.8C3.7,39.2,3.6,39.6,3.5,39.6z
	 M3.5,39.6c0.1,0,0.2-0.3,0.2-0.8c0-0.4-0.1-0.8-0.2-0.8h0.3C3.9,38,4,38.3,4,38.8c0,0.4-0.1,0.8-0.2,0.8H3.5z"/>
<path class="st0" d="M4.3,42.4c-0.4,0-0.6-1.2-0.7-2.8h0.1c0.1,0,0.2-0.3,0.2-0.8c0-0.4-0.1-0.8-0.2-0.8l0,0
	c0.1-1.6,0.3-2.8,0.7-2.8s0.8,1.6,0.8,3.6C5.1,40.8,4.8,42.4,4.3,42.4z"/>
<path class="st0" d="M12.6,35.5c0.1,0,0.2-0.1,0.2-0.2c0-0.1-0.1-0.2-0.2-0.2c-0.1,0-0.2,0.1-0.2,0.2C12.5,35.4,12.6,35.5,12.6,35.5
	z M11.3,39.7c-0.1,0-0.1-0.1-0.1-0.1c0-0.1,0.1-0.1,0.1-0.1c0.1,0,0.1,0.1,0.1,0.1C11.4,39.6,11.4,39.7,11.3,39.7z M10.8,39.7
	c-0.1,0-0.1-0.1-0.1-0.1c0-0.1,0.1-0.1,0.1-0.1c0.1,0,0.1,0.1,0.1,0.1C11,39.6,10.9,39.7,10.8,39.7z M11,40.4
	c-0.1,0-0.2-0.1-0.2-0.2c0-0.1,0.1-0.2,0.2-0.2c0.1,0,0.2,0.1,0.2,0.2C11.2,40.3,11.1,40.4,11,40.4z M11.6,40.4
	c-0.1,0-0.2-0.1-0.2-0.2c0-0.1,0.1-0.2,0.2-0.2c0.1,0,0.2,0.1,0.2,0.2C11.8,40.3,11.7,40.4,11.6,40.4z M11.9,41.1
	c-0.1,0-0.2-0.1-0.2-0.2c0-0.1,0.1-0.2,0.2-0.2c0.1,0,0.2,0.1,0.2,0.2C12,41,12,41.1,11.9,41.1z M12.6,42.2c-0.1,0-0.2-0.1-0.2-0.2
	c0-0.1,0.1-0.2,0.2-0.2c0.1,0,0.2,0.1,0.2,0.2C12.7,42.1,12.6,42.2,12.6,42.2z M12.1,35.1c0.1,0,0.1,0.1,0.1,0.2
	c0,0.1-0.1,0.2-0.2,0.1c-0.1,0-0.1-0.1-0.1-0.2C11.9,35.2,12,35.1,12.1,35.1z M11.7,36.1c-0.1,0-0.1-0.1-0.1-0.2
	c0-0.1,0.1-0.2,0.2-0.2c0.1,0,0.2,0.1,0.2,0.2c0,0,0,0.1-0.1,0.1C11.8,36.1,11.7,36.1,11.7,36.1z M10.8,36.8c0.1,0,0.2-0.1,0.2-0.2
	c0-0.1-0.1-0.2-0.2-0.2c-0.1,0-0.2,0.1-0.2,0.2S10.7,36.8,10.8,36.8z M11.1,36.2c0.1,0,0.2-0.1,0.2-0.2c0-0.1-0.1-0.2-0.2-0.2
	c-0.1,0-0.2,0.1-0.2,0.2C11,36.1,11.1,36.2,11.1,36.2z M10.2,35.5c0.1,0,0.2-0.1,0.2-0.2c0-0.2-0.1-0.2-0.2-0.2
	c-0.1,0-0.2,0-0.2,0.2C10,35.4,10.1,35.5,10.2,35.5z M10.3,42.3c0.1,0,0.2-0.1,0.2-0.3c0-0.1-0.1-0.2-0.2-0.2
	c-0.2,0-0.3,0.1-0.3,0.2C10,42.2,10.1,42.3,10.3,42.3z M9.8,37.7c0.1,0,0.2-0.1,0.2-0.2c0-0.1-0.1-0.2-0.2-0.2
	c-0.1,0-0.2,0.1-0.2,0.2C9.6,37.6,9.7,37.7,9.8,37.7z M10.6,36.2c0.1,0,0.2-0.1,0.2-0.2c0-0.1-0.1-0.2-0.2-0.2
	c-0.2,0-0.3,0.1-0.3,0.2C10.3,36.1,10.4,36.2,10.6,36.2z M9.5,35.5c0.1,0,0.2-0.1,0.2-0.2c0-0.1-0.1-0.2-0.2-0.2
	c-0.2,0-0.2,0.1-0.2,0.2S9.3,35.5,9.5,35.5z M9.7,41.5c0.1,0,0.2-0.1,0.2-0.2c0-0.2-0.1-0.3-0.2-0.3c-0.2,0-0.3,0.1-0.3,0.3
	C9.4,41.4,9.5,41.5,9.7,41.5z M10.1,36.9c0.1,0,0.2-0.1,0.2-0.2c0-0.2-0.1-0.2-0.2-0.2c-0.2,0-0.3,0.1-0.3,0.2
	C9.9,36.8,10,36.9,10.1,36.9z M9.9,36.2c0.1,0,0.2-0.1,0.2-0.3c0-0.1-0.1-0.2-0.2-0.2c-0.2,0-0.3,0.1-0.3,0.2
	C9.6,36.2,9.7,36.2,9.9,36.2z M8.8,35.5c0.1,0,0.2-0.1,0.2-0.2C9,35.2,8.9,35,8.8,35c-0.2,0-0.3,0.2-0.3,0.3
	C8.5,35.4,8.6,35.5,8.8,35.5z M9.6,42.3c0.1,0,0.2-0.2,0.2-0.3c0-0.2-0.1-0.3-0.2-0.3c-0.2,0-0.3,0.1-0.3,0.3S9.4,42.3,9.6,42.3z
	 M9.1,41.6c0.1,0,0.2-0.1,0.2-0.2c0-0.1-0.1-0.3-0.2-0.3c-0.2,0-0.3,0.2-0.3,0.3C8.8,41.5,8.9,41.6,9.1,41.6z M9.1,37.7
	c0.2,0,0.3-0.1,0.3-0.3c0-0.1-0.1-0.2-0.3-0.2c-0.1,0-0.2,0.1-0.2,0.2C8.9,37.6,9,37.7,9.1,37.7z M9.4,37c0.1,0,0.2-0.2,0.2-0.3
	c0-0.2-0.1-0.2-0.2-0.2c-0.2,0-0.3,0.1-0.3,0.2C9.1,36.8,9.2,37,9.4,37z M9.2,36.2c0.1,0,0.2-0.1,0.2-0.2c0-0.2-0.1-0.3-0.2-0.3
	c-0.2,0-0.3,0.1-0.3,0.3C9,36.2,9.1,36.2,9.2,36.2z M8.1,35.6c0.1,0,0.2-0.1,0.2-0.3c0-0.1-0.1-0.3-0.2-0.3c-0.2,0-0.3,0.2-0.3,0.3
	C7.8,35.5,7.9,35.6,8.1,35.6z M8.7,42.3C8.9,42.3,9,42.1,9,42c0-0.2-0.1-0.3-0.3-0.3c-0.1,0-0.3,0.1-0.3,0.3
	C8.5,42.2,8.7,42.3,8.7,42.3z M8.4,41.6c0.2,0,0.3-0.1,0.3-0.2c0-0.2-0.1-0.3-0.3-0.3c-0.1,0-0.3,0.1-0.3,0.3
	C8.2,41.5,8.3,41.6,8.4,41.6z M8.6,37c0.2,0,0.3-0.1,0.3-0.3s-0.1-0.2-0.3-0.2c-0.1,0-0.3,0.1-0.3,0.2S8.5,37,8.6,37z M8.5,36.3
	c0.2,0,0.3-0.2,0.3-0.3c0-0.2-0.1-0.3-0.3-0.3c-0.1,0-0.3,0.1-0.3,0.3S8.4,36.3,8.5,36.3z M6.3,42.3c0.2,0,0.3-0.2,0.3-0.3
	c0-0.2-0.1-0.3-0.3-0.3c-0.2,0-0.2,0.2-0.2,0.3C6.1,42.1,6.2,42.3,6.3,42.3z M7.1,42.3c0.1,0,0.3-0.1,0.3-0.3s-0.2-0.3-0.3-0.3
	c-0.2,0-0.3,0.1-0.3,0.3C6.9,42.2,7,42.3,7.1,42.3z M7.1,41.5c0.1,0,0.3-0.1,0.3-0.3c0-0.1-0.2-0.3-0.3-0.3c-0.2,0-0.3,0.2-0.3,0.3
	C6.8,41.4,6.9,41.5,7.1,41.5z M7.9,42.3c0.2,0,0.3-0.2,0.3-0.3c0-0.2-0.1-0.3-0.3-0.3c-0.1,0-0.3,0.1-0.3,0.3
	C7.7,42.2,7.9,42.3,7.9,42.3z M7.7,41.6c0.2,0,0.3-0.2,0.3-0.2c0-0.2-0.1-0.3-0.3-0.3c-0.1,0-0.3,0.1-0.3,0.3
	C7.5,41.4,7.6,41.6,7.7,41.6z M16,43.4c-4.2,0-9.1,0.1-10.2-0.1c-0.4-0.1-0.8-0.6-1-0.8h0.1v-0.1c0.7,0,2.4,0,4.2,0.1
	c1.7,0,3.6,0.1,4.9,0.1c0.7,0.4,1.5,0.6,2.3,0.6c0.9,0,1.7-0.2,2.3-0.6h0.1c2.8,0,6.9-0.1,8.1-0.1c0,0-0.3,0.4-0.5,0.6
	C26.1,43.3,23.7,43.4,16,43.4z"/>
<path class="st0" d="M6.4,35.7c0.1,0,0.2,0,0.2,0.1c0.1,0.1,0,0.1,0,0.2c-0.1,0,0.1,0.1,0.1,0.1c0,0.2-0.1,0.3,0.1,0.4
	c0.1,0.1-0.1,0.2,0,0.3C6.8,36.9,7,36.9,7,37c0,0-0.1,0.2,0,0.3c0,0.1,0.2,0,0.2,0.1v0.2c0,0.1,0.2,0.1,0.2,0.2v0.3
	c0.1,0.1,0.2,0.2,0.2,0.3c0,0,0.1,0.1,0.2,0.2v0.1c0.1,0.1,0.2,0,0.2,0l0.1,0.1c0,0.1,0.2,0,0.2,0L8.4,39 M6,36.4
	c0.1,0,0.2,0.1,0.2,0.2L6,36.4z"/>
<path class="st0" d="M4.9,35.3c-0.1,0-0.2,0-0.3,0.1c0,0,0,0.1,0.1,0.1c0,0,0-0.1-0.1-0.1L4.9,35.3z M14,42.5L14,42.5L14,42.5z
	 M4.9,42.3h0.4h0.1l0,0l0,0h1h0.2h0.1h0.1c0.7,0,1.5,0,2.4,0.1c1.7,0,3.6,0.1,4.9,0.1c-1.3-0.8-2.2-2.3-2.2-3.9
	c0-1.6,0.8-3.1,2.1-3.9L4.9,42.3z M8.4,38.4c0.2,0.1,0.4,0.1,0.6,0.1c0.1,0,0.4-0.2,0.7-0.2s0.4,0,0.6,0.1c0.2,0.1,0.7,0,0.7-0.3
	c0.1-0.3,0-1,0.1-1.3s0.3-0.6,0.6-0.7C12,36,12.1,36,12.1,36s-0.1,0.2-0.3,0.2c-0.1,0.1-0.3,0.3-0.3,0.4c0,0,0.1-0.1,0.2-0.2
	c0,0,0.3-0.3,0.4-0.3L12,36.5c-0.1,0.1-0.2,0.1-0.2,0.1s0.1-0.1,0.2-0.1c0,0,0,0.3-0.2,0.3c-0.1,0-0.3,0.2-0.3,0.3
	c0,0,0.1-0.1,0.1-0.2c0.1-0.1,0.3-0.2,0.3-0.2h0.2c0,0-0.1,0.3-0.2,0.3c-0.1,0.1-0.3,0.2-0.3,0.3c0,0,0-0.1,0.1-0.1s0.2-0.2,0.2-0.2
	s0,0.3-0.1,0.3c-0.1,0.2-0.4,0.1-0.4,0.5c0.1-0.1,0.1-0.3,0.4-0.5c-0.1,0.1-0.1,0.8-0.1,0.8l-0.2,0.1c-0.1,0.1-0.4,0.2-0.7,0.2
	c-0.2,0-0.3,0.1-0.3,0.2c-0.1,0.1-0.2,0.2-0.2,0.2s0.2,0.5-0.1,0.9c-0.1,0.2,0.1,0.3,0.2,0.4c0.1,0.1,0.6,0.2,0.6,0.2
	s0.2-0.1,0.3,0.3c0.2,0.3,0.6,0.6,0.7,0.7c0.1,0,0.2,0,0.2,0.3c0,0,0,0.2,0.1,0.4c0,0,0,0.2,0.1,0.3h-0.6c0-0.1,0-0.2,0-0.2
	c0-0.1-0.1-0.3-0.1-0.4c-0.1-0.1-0.5-0.6-0.7-0.7c-0.2-0.1-0.5-0.2-0.8-0.2s-0.6-0.2-0.9-0.6c-0.2-0.3-0.3-0.6-0.5-0.7
	c0,0,0.3,0.3,0.5,0.7c0,0-0.5,0.2-0.9,0.2c-0.3,0-0.8,0-1.2-0.3c0,0,0.1,0.5-0.3,0.5c-0.3,0-0.7,0-0.8,0.2c-0.1,0.1-0.2,0.3-0.2,0.3
	l-0.1,0.1c0,0-0.1,0.3,0,0.4c0,0-0.5,0.2-0.5,0.3c0,0,0-0.1-0.1-0.2c0.1-0.3,0.2-0.6,0.2-1c0.1-0.1,0.2-0.3,0.2-0.3s0.1-0.2,0.2-0.2
	C6,40.2,6.3,40,6.4,40c0,0-0.2,0.1-0.2-0.1c0-0.3-0.1-0.7,0.3-1.1c0,0-0.2,0.2-0.3,0.3c0,0,0-0.6,0.1-0.9c0.1-0.3,0.1-0.5,0.1-0.7
	v-0.4c0,0,0.1-0.3,0-0.4c0,0,0.1,0.2-0.1,0.4C6.1,37.5,6,37.5,6,37.5c0,0.1-0.1,0.3-0.1,0.3S5.8,38,5.7,38c-0.1-0.1-0.2-0.3-0.1-0.4
	c0-0.2,0.2-0.4,0.2-0.6c0-0.1-0.1-0.4,0-0.5c0,0,0-0.1,0.1-0.1c0,0,0-0.5,0.1-0.5c0,0,0.1-0.3,0.3-0.3c0,0-0.1-0.2,0.2-0.3v0.2
	c0,0,0.1-0.2,0.2-0.2l-0.1,0.2c0,0,0.3-0.1,0.3,0c0,0-0.2,0.1-0.2,0.2c0,0,0.1-0.1,0.3,0l-0.1,0.1l0.3-0.1c0,0-0.1,0.1-0.2,0.2
	c0,0,0.3-0.1,0.4,0l-0.3,0.2c0,0,0.3-0.1,0.3,0l-0.2,0.2h0.2l-0.1,0.2c0,0,0.3,0.1,0.3,0.2l-0.3,0.2h0.3l-0.1,0.2h0.2l-0.1,0.2
	c0,0,0.2,0.2,0.3,0.2c0,0-0.2,0.1-0.3,0.2c0,0,0.3,0.1,0.4,0.2H7.8c0,0,0.2,0.1,0.3,0.2c0,0-0.1,0.1-0.2,0.1l0.3,0.1
	c0,0-0.3,0-0.3,0.1s0,0.1,0.1,0.1s0.2,0,0.3,0.2H8c0,0,0.3,0,0.3,0.1H8.2C8.2,38.2,8.3,38.3,8.4,38.4z M5,42.3c-0.2,0-0.2,0.2-0.8,0
	l0,0l0,0l0,0l0,0l0,0l0,0l0,0l0,0l0,0l0,0l0,0l0,0c0.4,0,0.8-1.5,0.8-3.6v-0.2v-0.1l0,0v-0.1v-0.1l0,0l0,0c0-0.1,0-0.2,0-0.3v-0.1
	l0,0v-0.1l0,0v-0.1l0,0l0,0l0,0l0,0l0,0l0,0v-0.1l0,0l0,0v-0.1l0,0l0,0c0-0.4,0-0.5,0-0.6l0,0v-0.1l0,0l0,0l0,0
	c-0.1-0.5-0.2-0.8-0.3-1.1c0,0,0-0.1-0.1-0.1L5,35.4V42.3z"/>
<path class="st0" d="M22.6,36.5c-0.2-0.1-0.3,0.1-0.3,0.2L22.6,36.5z M7.2,39.8c0.1,0.1,0.1,0.2,0.1,0.3c0.1,0.2,0.2,0.3,0.3,0.3
	L7.2,39.8z M16.4,43.2c2.5,0,4.6-2,4.6-4.6c0-2.5-2-4.7-4.6-4.7c-2.5,0-4.6,2.1-4.6,4.7C11.8,41.1,13.8,43.2,16.4,43.2z"/>
<path class="st1" d="M6.3,51.1L6.3,51.1c-0.6-0.5-2-2.1-0.7-1.8c0,0,0.2-0.2,0-0.7H4.8l-0.4-0.4h9.4c-0.8-0.8-0.8-1-1.4-1h-0.2
	l-0.1-0.4c0.8-0.1,1.1,0.4,2,1.4h0.1l0,0h1.5l0,0h1.7l0.4,0.4H17v2.5l-0.4-0.3v-0.7c-0.8,0.7-1.9-0.2-1.4-0.9c0,0,0.6-0.6,1.4,0
	v-0.7h-2.3V51l-0.4-0.3v-0.8H13c0,0.3,0,0.7-0.2,0.5c-0.4-0.2-0.9-0.9-0.6-0.9h0.4v-1h-1.1V51l-0.4-0.3V50c-0.7,0.6-1.6,0.2-1.6-0.7
	c0.5,0,0.7-0.5,0.5-0.9H7.2v2.5l-0.5-0.3v-1.2c-0.5,0.4-1,0-1,0c-0.1,0.2-0.2,0.3-0.2,0.3C5.7,50.4,6,50.9,6.3,51.1z M6.8,48.7H5.9
	c0.1,0.6,0,0.8,0,0.8c0.2,0.1,0.5,0.2,0.9-0.2V48.7z M9.5,49.6h-1c-0.6,0-0.2,1,0.4,1.6l-0.1,0.1c-0.8-0.6-1.4-2-0.6-2h1.3
	C9.5,49.3,9.5,49.6,9.5,49.6z M10.9,49.8v-1.1h-0.8c0.2,0.5,0.1,1-0.5,1.1C9.7,50.2,10.5,50.2,10.9,49.8z M13.8,48.7h-0.9v1h0.9
	V48.7z M16.6,49.8v-0.2c0-0.4-1.4-0.2-1.3,0.3C15.4,50.4,16.6,50.2,16.6,49.8z M24.4,49.8v-1.1h-0.8c0.2,0.5,0.1,1-0.5,1.1
	C23.2,50.2,24,50.2,24.4,49.8z M21.8,49.7h-0.7c1.1,0.8-0.8,2.1-1.4-0.3l0.2-0.1c0.1,0.6,0.8,1.4,1.1,1c0.2-0.3,0-0.7-0.5-1h1.4
	v-0.6h-2.3l-0.4-0.4h8c-0.8-0.8-0.8-1-1.4-1h-0.3l-0.1-0.4c0.8-0.1,1.1,0.4,2,1.4H28l0.4,0.4h-0.8v2.5l-0.5-0.3v-1.3h-1
	c-0.7,0-0.2,1,0.4,1.6l-0.1,0.1c-0.8-0.6-1.4-2-0.6-2H27v-0.5h-2.3v2.5L24.3,51v-0.7c-0.7,0.6-1.6,0.2-1.6-0.7
	c0.5,0,0.7-0.5,0.5-0.9h-1v2.5l-0.4-0.3C21.8,50.9,21.8,49.7,21.8,49.7z"/>
<path class="st0" d="M18.5,16.8c0.2,0.3,0.5,0.9,0.5,1.1c-0.1,0.2-0.2,0.5,0,0.8c-0.2-0.3-1.1-0.6-1.1-1.1 M18.2,17
	c0.1,0.4,0.4,1,0.7,1.4L18.2,17z"/>
<path class="st0" d="M14.8,15.9c-0.3,0.3-0.9,0.8-1.2,1.1 M14.1,15.9c-0.3,0-0.5,0.9-0.7,1.1l-0.1,0.1c0.6-0.5,1.4-0.2,1.8-0.9
	L14.1,15.9z"/>
<path class="st0" d="M22.4,12.5l-0.2,0.1c0,0.3,0,0.8-0.4,0.8"/>
<path class="st0" d="M23,15.8c-0.2,0.4-0.1,0.9-0.4,1.3 M22.5,15.9c-0.2,0.5,0,1.1,0,1.5c0.4-0.4,0.9-0.7,0.9-1.3L22.5,15.9z"/>
<path class="st0" d="M23.8,22.3c0.2,0.2,0.3,0.3,0.5,0.5"/>
<path class="st0" d="M24,20.1c0,0.2-0.2,0.5-0.4,0.7"/>
<path class="st0" d="M22.6,18c-0.1,0.3,0,0.6,0,0.8c0,0.2,0.1,0.5,0.2,0.7c0-0.5,0.7-0.7,0.5-1.4 M23,18.2c0,0.2-0.1,0.8-0.2,1
	L23,18.2z"/>
<path class="st0" d="M23.4,11.1l-0.2,0.1c0,0.3,0,0.8-0.4,0.8 M8.2,10.2C8,10.3,8,10.7,8,10.9C8,11,7.9,11,7.9,11.1L8.2,10.2z
	 M8.8,10.4C8.7,10.3,8.7,10,8.6,9.8L8.8,10.4z"/>
<path class="st0" d="M9.1,10.7c0,0.2,0.3,0.5,0.4,0.6c0.1,0.1,0,0.1,0,0.2"/>
<path class="st0" d="M9.1,18.5c0.1,0.2,0.2,0.3,0.3,0.4c0.3,0.3,0.4,0.5,0.7,0.6"/>
<path class="st0" d="M11.5,35.1c0.1,0,0.2,0.1,0.1,0.2c0,0.1-0.1,0.2-0.2,0.1c-0.1,0-0.1-0.1-0.1-0.2C11.3,35.2,11.4,35.1,11.5,35.1
	z"/>
<path class="st0" d="M10.8,35.1c0.1,0,0.2,0.1,0.2,0.2c0,0.1-0.1,0.2-0.2,0.2c-0.1,0-0.2-0.1-0.2-0.2C10.6,35.2,10.7,35.1,10.8,35.1
	z"/>
<path class="st0" d="M23.5,35.5c-0.2,0-0.3-0.1-0.3-0.3c0-0.1,0.1-0.3,0.3-0.3c0.1,0,0.3,0.2,0.3,0.3C23.7,35.5,23.6,35.5,23.5,35.5
	z M10.9,42.2c-0.1,0-0.2-0.1-0.2-0.2c0-0.1,0.1-0.2,0.2-0.2c0.1,0,0.2,0.1,0.2,0.2C11.1,42.1,11,42.2,10.9,42.2z M10.4,37.7
	c0.1,0,0.2-0.1,0.2-0.2c0-0.1-0.1-0.2-0.2-0.2c-0.1,0-0.2,0.1-0.2,0.2C10.2,37.6,10.3,37.7,10.4,37.7z"/>
<path class="st0" d="M5.4,36c0.1,0,0.2-0.1,0.2-0.2c0-0.1-0.1-0.2-0.2-0.2C5.2,35.5,5.1,36,5.4,36z"/>
<path class="st0" d="M14.8,22.9c0,0.2,0.2,0.8,0.5,1.1 M20.6,26.1c0.3,0.3,0.6,0.5,0.8,0.8L20.6,26.1z"/>
<path class="st0" d="M16.2,34c-0.2,0-0.4,0-0.6,0c-4.2,0-9.2,0.3-10.8,0.8c-0.3,0.1-0.4,0.3-0.5,0.5c0.1,0,0.1,0.1,0.2,0.2
	c2.5-0.6,6.8-0.7,9.3-0.7l0,0h0.1l0,0l0,0c0.1,0,0.1-0.1,0.2-0.1l0,0l0,0l0,0h0.1l0.1-0.1l0,0c0.1,0,0.2-0.1,0.3-0.1l0,0h0.1l0,0
	l0,0l0,0l0,0l0,0l0,0l0,0c0.2-0.1,0.4-0.1,0.6-0.1l0,0l0,0C15.8,34,16,34,16.2,34L16.2,34z M26.2,34.5c-0.2,0-5.4-0.4-9.6-0.5l0,0
	c0.3,0,0.7,0.1,1,0.2l0,0l0,0h0.1l0,0l0,0l0,0h0.1l0,0l0,0h0.1l0,0l0,0H18l0,0l0,0h0.1l0,0l0,0h0.1l0,0c0.2,0.1,0.3,0.2,0.5,0.3l0,0
	l0,0c1.7,0,3.8,0.1,5.6,0.3h0.3c0.8,0.1,1.6,0.2,2.3,0.4C27,35.1,27,35,27.1,35c0-0.2-0.1-0.3-0.2-0.4
	C26.8,34.5,26.2,34.5,26.2,34.5z M3.9,11.5c-0.3,0.2-0.5,0.3-0.7,0.4c0,0,0.2,0.2,0.3,0.3c0.1,0.3,0.3,0,0.3,0
	c-0.3,0.3-0.2,0.3-0.1,0.8c0.1,0.3,0.5,0.3,0.8,0.3c0.2,0,0.2-0.2,0.5-0.3c0.4,0,0.6-0.5,0.9-0.8c0.3-0.2,0.3-0.1,0.4-0.3
	c0,0-0.4,1.2-0.5,1.4C5.6,13.8,5.3,14,5,14.5c0,0,0.8-0.3,0.8-0.4c0,0-0.5,0.5-0.5,0.7c0,0.1-0.1,0.4-0.2,0.5s0.3-0.1,0.3-0.1
	s-0.5,0.6-0.4,1c0,0.2,0.1,0.6,0,0.9c-0.1,0.2-0.2,1.1-0.2,1.4c0.1,0.3,0.3,1,0.3,1.2C5.2,20,5.9,21.2,6,21.4
	c0.1,0.1,0.3,0.3,0.3,0.5s0.2,0.3,0.2,0.4c0.1,0.1,0.3,0.4,0.3,0.5c0.1,0.2,0.4,0.3,0.4,0.5s0.2,1.2,0.3,2.5c0.1,0.5,0.7,3,0.5,3.9
	c-0.2,0.8-0.3,0.9-0.4,1.4c0,0.5-0.1,0.9-0.5,0.9c-0.6,0-1,0.2-1,0.8c0,0.7-0.3,0.3-0.8,0.6c-0.2,0-0.3,0.8,0.3,1.2
	c0,0,4.1-0.4,4.7-0.5c0,0,0,0,0.1-0.2c-0.3-0.1-0.3-0.5-0.1-0.7c0.3-0.3,0.5-0.7,0.7-1c0,0,0-0.1,0.1-0.1c0-0.1,0-0.3,0-0.4
	c0-1.1,0.6-2.9,0.8-3.1l0,0l0,0c0-0.2-0.1-0.5-0.2-1c-0.2-0.9-0.3-1.4-0.4-2.1c-0.3-1.7-0.2-3.3-0.6-4.9c-0.1-0.3-0.2-0.6-0.4-0.8
	c-0.3-0.3-0.1-0.7-0.2-1c-0.1-0.6,0-1.3,0.4-1.9h-0.3c0-0.4,0.2-0.8,0.2-1.1c0-0.4,0-0.9,0.3-1.2c0.1-0.2-0.1-0.3,0-0.5
	c0.2-0.4,0-0.9,0.1-1.4c0,0,0.2-0.2,0.1-0.3c-0.3-0.6,0.1-1,0.1-1.4c-0.1-0.2-0.1-0.3,0-0.5c0-0.1,0.1-0.2,0.2-0.3
	C11,10,11,9.8,11,9.6c0-0.3,0.1-0.8,0.2-0.9c0.2-0.2,0.3-0.3,0.3-0.5c-0.1,0.2-0.2,0.2-0.3,0.3c0,0-0.2,0.2-0.2,0.3
	c0-0.2,0-0.3,0-0.3c-0.3-0.8-0.1-1.2,0-1.6C10.3,6,9.4,5.3,9.2,5.2C8.7,4.8,8.5,5,8.5,5S8.2,4.6,7.8,4.3C7.5,4,7.1,3.9,6.8,4
	C6.5,4.3,6.2,4.2,5.9,4.2c-0.3,0-0.5,0.1-0.6,0.3C5.1,4.6,5.4,4.8,5,5.1C4.8,5.3,4.6,5.7,4.6,5.7C4.4,5.9,3.5,6.3,2.8,6.8
	C2.2,7.1,2.6,7.9,2.5,8.1c-0.2,0.3-0.8,1-1.2,1.1C1,9.2,0.9,9.6,1.1,9.8s0.3,0.3,0.3,0.3c0.3,0.3,0.3,0.5,0.8,1
	C2.6,11.6,3,11.4,3,11.4c0-0.1,0.1-0.1,0.1-0.2c0.1-0.3,0.1-0.4,0.3-0.6c0.3-0.2,0.4-0.5,0.7-0.6c0.2-0.2,0.3-0.3,0.5-0.3
	c0.3,0.1,0.1,0.4,0.2,0.7C4.9,10.5,5,10.5,5,10.7c-0.2,0.2-0.3,0.2-0.5,0.2C4.3,11.1,4.1,11.4,3.9,11.5z M11.5,10.7L11.5,10.7
	L11.5,10.7L11.5,10.7L11.5,10.7L11.5,10.7L11.5,10.7L11.5,10.7L11.5,10.7l-0.1-0.1l0,0l0,0l0,0l0,0l0,0l0,0l0,0l0,0l0,0l0,0l0,0l0,0
	l0,0l0,0l0,0l0,0l0,0l0,0l0,0l0,0l0,0l0,0l0,0l0,0l0,0l0,0l0,0l0,0l0,0l0,0l0,0l0,0l0,0l0,0l0,0l0,0l0,0l0,0l0,0l0,0l0,0l0,0l0,0
	l0,0l0,0l0,0l0,0l0,0l0,0C11,10,11,9.8,11,9.6c0-0.3,0.1-0.8,0.2-0.9c0.2-0.2,0.3-0.3,0.3-0.5c-0.1,0.2-0.2,0.2-0.3,0.3
	c0,0-0.2,0.2-0.2,0.3c0-0.2,0-0.3,0-0.3c-0.5-1.3,0.1-1.7,0-2.5c0.2,0.3,0.3,0.3,0.4,0.3l-0.1-0.1c-0.3-0.1-0.5-0.3-0.6-0.6
	c-0.2-0.4,0-0.8,0.2-1.1C11,4.3,11.5,4.2,11.5,4c0.1-0.1,0-0.3,0-0.4c-0.2-0.3,0.2-0.7,0.5-0.8c0,0.3-0.1,0.5,0.1,0.8
	C12,3.4,12,3,12,2.9s0.3-0.3,0.2-0.3c0-0.2-0.2-0.3-0.1-0.4c0-0.1,0-0.3,0.1-0.3c0.1-0.2,0.2-0.2,0.3-0.3c0.2-0.2,0.6-0.2,0.7,0.1
	c0.1,0,0-0.1,0.1-0.1c0.1-0.1,0.2-0.2,0.3-0.2s0.2-0.1,0.3-0.1c0.2-0.1,0.3,0,0.5-0.1c0.2,0,0.3-0.2,0.5-0.3c0.3,0,0.5,0,0.7,0.2
	c0.1,0,0.2,0,0.1,0.1c0.4,0.1,0.8,0.2,1.3,0.2c0.1-0.1,0.3-0.2,0.4-0.2c0.2-0.1,0.3,0.1,0.4,0.1c0.4,0.1,0.8,0,1.2,0
	c0,0.1,0.1,0,0.1,0.1c0,0,0.1,0.1,0.1,0c0.1-0.1,0.5-0.1,0.7,0c0,0.1,0.1,0.6-0.2,0.8c-0.1,0.1,0,0.2,0,0.3C19.9,2.8,20,3,20.1,3.3
	s0.1,0.6-0.2,0.8c0,0.1,0,0.2,0.1,0.2c0.4,0.5,0.5,1.2,0.1,1.7c0.1,0.2,0.3,0.3,0.3,0.6c0.2,0.6,0.1,1.2-0.1,1.9
	c0,0.1,0,0.2,0.1,0.3c-0.1,0-0.3,0-0.3-0.1c0.3,0.3,0.3,1,0.2,1.5v0.2l0,0c-0.1,0.2-0.2,0.4-0.2,0.6c-0.1,0.5,0.1,0.9-0.5,1
	c-0.2,0.1-0.3,0.2-0.4,0.4c0-0.2-0.1-0.5-0.1-0.6c-0.1,0.3-0.3,0.6-0.3,1c-0.1-0.3-0.4-0.3-0.4-0.7c0,0.3-0.3,0.6-0.1,0.9
	c-0.3,0.1-0.6-0.1-0.8-0.3c0.1,0.3-0.1,0.5-0.4,0.6c-0.2,0.1-0.4,0.1-0.4,0.3c-0.4-0.2-0.7-0.5-1.1-0.7c0,0.5,0,0.4-0.3,0.8
	c-0.1-0.3-0.2-0.2-0.4-0.3c-0.3-0.1-0.3-0.6-0.3-0.9c-0.2,0.4-0.4,0.6-0.8,0.6c0.1-0.3,0.1-0.6-0.1-0.8c-0.3-0.2-0.4-0.4-0.6-0.7
	c-0.2,0.3-0.5,0.3-0.6,0.5c-0.1-0.3,0-0.6-0.1-0.8c0.1,0.3-0.3,0.5-0.4,0.5v-0.4C11.8,11.2,11.6,11,11.5,10.7z M16,24.2
	c0.5,0,0.6-0.2,0.8-0.5c-0.2,0.9-0.1,1.6,0.1,2.5c0.3,1.1,0.6,2.2,0.3,3.3c0,0.4-0.1,0.8-0.1,1.2c0,0.3,0.2,0.6,0.2,0.9
	c0,0.2-0.3,0.3-0.3,0.5c-0.2,0.6-0.3,1.5,0.3,1.7c0.3,0.1,0.6,0.1,0.9,0.1c0,0,0.5,0.3,1.1,0c0.3-0.1,0.5,0.1,0.8,0.1
	c0.4,0.2,0.5-0.3,1-0.1c0.6,0.2,0.8-0.4,0.5-0.8c-0.3-0.3-0.5-0.7-0.7-1c-0.3-0.4-0.7-0.5-0.8-1c-0.2-0.9-0.3-1.6-0.1-2.7
	c0.1-0.2,0.2-0.5,0.2-1c0.2-0.9,0.3-1.4,0.4-2.1c0.2-1.7,0.2-3.3,0.6-4.9c0.1-0.3,0-0.6,0.3-0.8c0.3-0.2,0.1-0.6,0.1-0.9
	c0.2-0.6,0.1-1.3-0.3-1.9c0.3-0.3,0.3-1,0.3-1.2c0-0.4-0.1-0.9-0.3-1.2c-0.2-0.2,0.1-0.3,0-0.5c-0.3-0.4,0-0.9-0.2-1.4
	c0,0-0.1-0.2-0.1-0.3c0.3-0.5,0-0.6-0.2-0.9c-0.1-0.3-0.3-0.7-0.3-0.8s-0.1-0.2-0.2-0.3c-0.1,0.2-0.2,0.4-0.2,0.6
	c-0.1,0.5,0.1,0.9-0.5,1c-0.2,0.1-0.3,0.2-0.4,0.4c0-0.2-0.1-0.5-0.1-0.6c-0.1,0.3-0.3,0.6-0.3,1c-0.1-0.3-0.4-0.3-0.4-0.7
	c0,0.3-0.3,0.6-0.1,0.9c-0.3,0.1-0.6-0.1-0.8-0.3c0.1,0.3-0.1,0.5-0.4,0.6c-0.2,0.1-0.4,0.1-0.4,0.3c-0.4-0.2-0.7-0.5-1.1-0.7
	c0,0.5,0,0.4-0.3,0.8c-0.1-0.3-0.2-0.2-0.4-0.3c-0.3-0.1-0.3-0.6-0.3-0.9c-0.2,0.4-0.4,0.6-0.8,0.6c0.1-0.3,0.1-0.6-0.1-0.8
	c-0.3-0.2-0.4-0.4-0.6-0.7c-0.2,0.3-0.5,0.3-0.6,0.5c-0.1-0.3,0-0.6-0.1-0.8c0.1,0.3-0.3,0.5-0.4,0.5v-0.4c-0.2-0.1-0.3-0.3-0.5-0.5
	c-0.1-0.2-0.3-0.4-0.4-0.6C11,10.3,11,10.4,11,10.5c-0.1,0.2-0.1,0.3,0,0.5c0.1,0.4-0.3,0.8-0.2,1.3c0.1,0.1-0.1,0.3-0.1,0.3
	c-0.1,0.4,0.1,0.9-0.1,1.4c-0.1,0.2,0.1,0.3,0,0.5c-0.3,0.3-0.3,0.8-0.3,1.2c0,0.3-0.2,0.7-0.2,1.1h0.3c-0.4,0.6-0.5,1.3-0.4,1.9
	c0.1,0.3-0.1,0.8,0.2,1c0.3,0.3,0.3,0.6,0.4,0.8c0.4,1.6,0.3,3.2,0.6,4.9c0.2,0.8,0.3,1.3,0.4,2.1c0.1,0.5,0.2,0.8,0.2,1
	c0.3,1.1,0.2,1.8-0.1,2.7c-0.1,0.5-0.5,0.6-0.8,1c-0.2,0.3-0.4,0.8-0.7,1c-0.3,0.3-0.1,0.9,0.5,0.8c0.5-0.2,0.6,0.3,1,0.1
	c0.3,0,0.5-0.2,0.8-0.1c0.6,0.3,1.1,0,1.1,0c0.3,0,0.7,0,0.9-0.1c0.6-0.2,0.5-1.1,0.3-1.7c-0.1-0.2-0.3-0.3-0.3-0.5
	c0-0.3,0.2-0.7,0.2-0.9c0-0.4-0.1-0.8-0.2-1.2c-0.2-1.1,0.2-2.2,0.4-3.3c0.2-0.9,0.2-1.6,0.1-2.5C15.3,24,15.5,24.2,16,24.2z"/>
<path class="st0" d="M17.9,6.2c-0.1-0.1-0.1-0.2-0.2-0.3c0,0,0,0.2,0,0.4L17,6.6l0,0C16.8,6.9,16.5,7,16.2,7h-0.3h-0.4
	c-0.2,0-0.5-0.1-0.6-0.3l0,0l-0.7-0.4c0-0.2,0-0.4,0-0.4C14,6,14,6.1,13.9,6.2l0,0c0,0-0.6,0.4-0.6,1C13.5,7.7,14.1,8,14.5,8
	c0.7,0,1.2-0.7,1.4-0.9C16.1,7.3,16.6,8,17.2,8c0.4,0,1.1-0.3,1.3-0.8C18.5,6.8,18.3,6.5,17.9,6.2z"/>
<path class="st2" d="M14.1,5.9c0,0,0,0.8,0.3,1C14.9,7.3,15.9,7,15.9,7s-1.1,0.8-1.8,0.3C13.6,6.9,13.7,6.3,14.1,5.9z M17.7,5.9
	c0,0,0.1,0.8-0.3,1C17,7.3,15.9,7,15.9,7s1.2,0.8,1.8,0.3C18.2,6.9,18.1,6.3,17.7,5.9z"/>
<path class="st0" d="M25.2,35.6c-0.2,0-0.3-0.2-0.2-0.4c0.1-0.1,0.1-0.1,0.2-0.1s0.2,0,0.2,0.1v0.1C25.4,35.5,25.3,35.6,25.2,35.6z"
	/>
<path class="st0" d="M26.1,37c-0.2,0-0.3-0.1-0.3-0.3s0.1-0.2,0.3-0.2c0,0,0.1,0,0.2,0.1c0,0.1,0,0.2-0.1,0.4H26.1z"/>
<path class="st0" d="M26.1,37.8c-0.2,0-0.3-0.1-0.3-0.3s0.1-0.3,0.3-0.3h0.1C26.2,37.4,26.2,37.6,26.1,37.8L26.1,37.8z"/>
<path class="st0" d="M26.1,38.5c-0.2,0-0.3-0.2-0.3-0.3c0-0.2,0.1-0.3,0.3-0.3l0,0C26.1,38.2,26.1,38.4,26.1,38.5L26.1,38.5
	L26.1,38.5z"/>
<path class="st0" d="M26,35.6c-0.1,0-0.2-0.1-0.2-0.2c0-0.1,0.1-0.2,0.2-0.2s0.2,0.1,0.2,0.2S26.1,35.6,26,35.6z"/>
<path class="st0" d="M26.1,36.2c-0.2,0-0.3-0.1-0.3-0.2c0-0.1,0.1-0.3,0.3-0.3c0.1,0,0.3,0.2,0.3,0.3C26.4,36.2,26.2,36.2,26.1,36.2
	z"/>
<path class="st0" d="M23.9,36.2c-0.1,0-0.2-0.1-0.2-0.2c0-0.1,0.1-0.2,0.2-0.2s0.2,0.1,0.2,0.2C24.1,36.1,24,36.2,23.9,36.2z"/>
<path class="st0" d="M23.9,41.6c0-0.1,0.1-0.2,0.2-0.2s0.2,0.1,0.2,0.2C24.3,41.8,23.9,41.8,23.9,41.6z"/>
<path class="st0" d="M25.4,41L25.4,41L25.4,41z"/>
<path class="st0" d="M22.7,40.7L22.7,40.7L22.7,40.7L22.7,40.7L22.7,40.7z"/>
<path class="st0" d="M22.4,42.1c0-0.1,0.1-0.2,0.2-0.2s0.2,0.1,0.2,0.2C22.7,42.3,22.4,42.3,22.4,42.1z"/>
<path class="st0" d="M22.1,40.5v0.6c-0.1,0.1-0.5,0.8-0.6,1c-0.1,0.1-0.3,0.2-0.4,0.3L21,42.5h1l-0.1-0.1c0-0.1,0.1-0.2,0.1-0.3
	c0.1-0.1,0.4-0.6,0.4-0.6c0.1-0.1,0.3-0.3,0.3-0.3c0.1-0.1,0.1-0.2,0.1-0.3c0,0,0,0.1-0.2,0.1c-0.2-0.1-0.3,0-0.4-0.2
	C22.1,40.7,22.1,40.6,22.1,40.5z"/>
<g>
	<path class="st3" d="M50.3,6.8h4.5c2.6,0,3.9,1.4,3.9,4.2v2.9c0,1.3-0.4,2.2-1.3,2.7c0.9,0.4,1.3,1.3,1.3,2.7v2.9
		c0,2.8-1.4,4.2-4.1,4.2h-4.3C50.3,26.4,50.3,6.8,50.3,6.8z M53.5,10v5.1h0.6c0.4,0,0.6,0,0.7-0.1c0.4-0.2,0.6-0.5,0.6-1v-2.9
		c0-0.7-0.3-1.1-1-1.1H53.5z M53.5,18.2v5.1h1c0.6,0,1-0.4,1-1.1v-2.9c0-0.5-0.2-0.9-0.6-1c-0.1,0-0.3-0.1-0.7-0.1H53.5z M61,9.2
		h3.3v7.2h1.9V9.2h3.3v17.2h-3.3v-7.2h-1.9v7.2H61V9.2z M80.3,23c0,2.5-1.4,3.7-4.2,3.7c-2.8,0-4.2-1.2-4.2-3.7V9.2h3.3V23
		c0,0.6,0.3,1,1,1c0.6,0,1-0.3,1-1V9.2h3.3V23H80.3z M89,20.6l3-11.4h3.2v17.2h-3.1v-7.9l-1.9,7.9h-2.3l-2-8v8h-3.2V9.2h3.2L89,20.6
		z M97.8,9.2h3.3v17.2h-3.3V9.2z"/>
	<path class="st4" d="M116.8,19.4l0.9,7h-3.3l-0.5-4.1h-2.4l-0.5,4.1h-3.3l0.9-7l2-12.6h4.2L116.8,19.4z M113.5,19.2l-0.8-5.9
		l-0.8,5.9H113.5z M119.4,9.2h4.5c2.6,0,3.9,1.2,3.9,3.7v2.5c0,1.2-0.4,1.9-1.3,2.3c0.9,0.4,1.3,1.2,1.3,2.3v2.5
		c0,2.5-1.4,3.7-4.1,3.7h-4.3V9.2z M122.7,11.9v4.5h0.6c0.4,0,0.6,0,0.7,0c0.4-0.1,0.6-0.4,0.6-0.9V13c0-0.7-0.3-1-1-1h-0.9
		C122.7,12,122.7,11.9,122.7,11.9z M122.7,19.2v4.5h1c0.6,0,1-0.3,1-1v-2.5c0-0.5-0.2-0.8-0.6-0.9c-0.1,0-0.3-0.1-0.7-0.1H122.7z
		 M130.1,9.2h3.3v7.2h1.9V9.2h3.3v17.2h-3.3v-7.2h-1.9v7.2h-3.3V9.2z M141.1,9.2h3.3v17.2h-3.3V9.2z M147,26.4V9.2h3.3v14.5h4.4v2.7
		C154.7,26.4,147,26.4,147,26.4z M156.3,9.2h7.7v2.7h-4.4v4.5h3.8v2.8h-3.8v4.5h4.4v2.7h-7.7V9.2z M171.5,17.8l3.7,8.6h-3.5
		l-2.5-6.4v6.4H166V9.2h3.3v6.4l2.5-6.4h3.5L171.5,17.8z M176.9,9.2h3.3v7.2h1.9V9.2h3.3v17.2h-3.3v-7.2h-1.9v7.2h-3.3V9.2z"/>
</g>
<g>
	<path class="st5" d="M54.2,38.3c-0.2,0.3-0.6,0.5-1,0.7s-0.9,0.2-1.4,0.2s-1-0.1-1.5-0.4c-0.4-0.2-0.7-0.6-1-1.1
		c-0.2-0.5-0.3-1-0.4-1.6v-0.5c0-1,0.2-1.8,0.7-2.3c0.5-0.6,1.1-0.8,2-0.8c0.7,0,1.3,0.2,1.7,0.5c0.4,0.4,0.7,0.9,0.8,1.6H53
		c-0.1-0.8-0.6-1.2-1.4-1.2c-0.5,0-0.9,0.2-1.2,0.6c-0.3,0.4-0.4,0.9-0.4,1.6v0.5c0,0.7,0.1,1.3,0.4,1.6c0.3,0.4,0.7,0.6,1.2,0.6
		c0.6,0,1-0.1,1.2-0.4v-1.3h-1.3v-0.9H54v2.6H54.2z"/>
	<path class="st5" d="M55.1,36.7c0-0.5,0.1-0.9,0.3-1.3c0.2-0.4,0.5-0.7,0.8-0.9s0.7-0.3,1.2-0.3c0.7,0,1.2,0.2,1.6,0.6
		c0.4,0.4,0.6,1,0.7,1.7v0.3c0,0.5-0.1,0.9-0.3,1.3S59,38.8,58.6,39s-0.7,0.3-1.2,0.3c-0.7,0-1.2-0.2-1.6-0.7
		C55.3,38.1,55.1,37.5,55.1,36.7L55.1,36.7z M56.2,36.8c0,0.5,0.1,0.9,0.3,1.2s0.5,0.4,0.9,0.4s0.7-0.1,0.9-0.4
		c0.2-0.3,0.3-0.7,0.3-1.3c0-0.5-0.1-0.9-0.3-1.2s-0.5-0.4-0.9-0.4s-0.6,0.1-0.9,0.4C56.3,35.8,56.2,36.2,56.2,36.8z"/>
	<path class="st5" d="M62.2,37.8l1-3.5h1.1l-1.7,4.9h-0.9L60,34.3h1.1L62.2,37.8z"/>
	<path class="st5" d="M67.2,39.2c-0.7,0-1.3-0.2-1.7-0.7c-0.4-0.4-0.6-1-0.6-1.7v-0.1c0-0.5,0.1-0.9,0.3-1.3
		c0.2-0.4,0.5-0.7,0.8-0.9s0.7-0.3,1.1-0.3c0.7,0,1.2,0.2,1.5,0.6c0.4,0.4,0.5,1,0.5,1.8V37h-3.2c0,0.4,0.2,0.7,0.4,1
		s0.5,0.4,0.9,0.4c0.5,0,0.9-0.2,1.2-0.6l0.6,0.6c-0.2,0.3-0.5,0.5-0.8,0.7C67.9,39.2,67.6,39.2,67.2,39.2z M67,35.1
		c-0.3,0-0.5,0.1-0.7,0.3s-0.3,0.5-0.4,0.9H68v-0.1c0-0.4-0.1-0.6-0.3-0.8C67.6,35.2,67.3,35.1,67,35.1z"/>
	<path class="st5" d="M72.5,35.3c-0.1,0-0.3,0-0.4,0c-0.5,0-0.8,0.2-1,0.6v3.3H70v-4.9h1v0.5c0.3-0.4,0.6-0.6,1.1-0.6
		c0.2,0,0.3,0,0.4,0.1V35.3z"/>
	<path class="st5" d="M74.2,34.3v0.6c0.4-0.4,0.8-0.7,1.4-0.7c1,0,1.5,0.6,1.5,1.7v3.2H76V36c0-0.3-0.1-0.5-0.2-0.7
		c-0.1-0.1-0.4-0.2-0.7-0.2c-0.4,0-0.8,0.2-1,0.6v3.5H73v-4.9C73,34.3,74.2,34.3,74.2,34.3z"/>
	<path class="st5" d="M79.4,34.3v0.5c0.3-0.4,0.8-0.6,1.4-0.6c0.7,0,1.1,0.2,1.3,0.7c0.4-0.5,0.9-0.7,1.5-0.7c0.5,0,0.9,0.1,1.2,0.4
		c0.3,0.3,0.4,0.7,0.4,1.3v3.2h-1.1V36c0-0.3-0.1-0.5-0.2-0.7c-0.1-0.1-0.4-0.2-0.7-0.2c-0.2,0-0.5,0.1-0.6,0.2
		c-0.2,0.1-0.3,0.3-0.3,0.5v3.3h-1.1v-3.2c0-0.6-0.3-0.9-0.9-0.9c-0.4,0-0.7,0.2-0.9,0.5V39h-1.1v-4.9h1.1V34.3z"/>
	<path class="st5" d="M88.5,39.2c-0.7,0-1.3-0.2-1.7-0.7c-0.4-0.4-0.6-1-0.6-1.7v-0.1c0-0.5,0.1-0.9,0.3-1.3
		c0.2-0.4,0.5-0.7,0.8-0.9s0.7-0.3,1.1-0.3c0.7,0,1.2,0.2,1.5,0.6c0.4,0.4,0.5,1,0.5,1.8V37h-3.2c0,0.4,0.2,0.7,0.4,1
		s0.5,0.4,0.9,0.4c0.5,0,0.9-0.2,1.2-0.6l0.6,0.6c-0.2,0.3-0.5,0.5-0.8,0.7C89.3,39.2,88.9,39.2,88.5,39.2z M88.4,35.1
		c-0.3,0-0.5,0.1-0.7,0.3s-0.3,0.5-0.4,0.9h2.1v-0.1c0-0.4-0.1-0.6-0.3-0.8C88.9,35.2,88.7,35.1,88.4,35.1z"/>
	<path class="st5" d="M92.3,34.3v0.6c0.4-0.4,0.8-0.7,1.4-0.7c1,0,1.5,0.6,1.5,1.7v3.2h-1.1V36c0-0.3-0.1-0.5-0.2-0.7
		c-0.1-0.1-0.4-0.2-0.7-0.2c-0.4,0-0.8,0.2-1,0.6v3.5h-1.1v-4.9C91.1,34.3,92.3,34.3,92.3,34.3z"/>
	<path class="st5" d="M97.8,33.1v1.2h0.9v0.8h-0.9v2.7c0,0.2,0,0.3,0.1,0.4c0.1,0.1,0.2,0.1,0.4,0.1c0.1,0,0.3,0,0.4,0v0.8
		c-0.2,0.1-0.5,0.1-0.7,0.1c-0.8,0-1.3-0.5-1.3-1.4V35h-0.8v-0.8h0.8V33h1.1V33.1z"/>
	<path class="st5" d="M101.6,36.7c0-0.5,0.1-0.9,0.3-1.3c0.2-0.4,0.5-0.7,0.8-0.9s0.7-0.3,1.2-0.3c0.7,0,1.2,0.2,1.6,0.6
		c0.4,0.4,0.6,1,0.7,1.7v0.3c0,0.5-0.1,0.9-0.3,1.3c-0.2,0.4-0.4,0.7-0.8,0.9c-0.3,0.2-0.7,0.3-1.2,0.3c-0.7,0-1.2-0.2-1.6-0.7
		C101.8,38.1,101.6,37.5,101.6,36.7L101.6,36.7z M102.7,36.8c0,0.5,0.1,0.9,0.3,1.2s0.5,0.4,0.9,0.4s0.7-0.1,0.9-0.4
		c0.2-0.3,0.3-0.7,0.3-1.3c0-0.5-0.1-0.9-0.3-1.2c-0.2-0.3-0.5-0.4-0.9-0.4s-0.6,0.1-0.9,0.4C102.8,35.8,102.7,36.2,102.7,36.8z"/>
	<path class="st5" d="M107.4,39.1V35h-0.7v-0.8h0.7v-0.4c0-0.5,0.1-1,0.4-1.3s0.7-0.4,1.3-0.4c0.2,0,0.4,0,0.6,0.1v0.9
		c-0.1,0-0.3,0-0.4,0c-0.5,0-0.8,0.3-0.8,0.8v0.4h1v0.8h-1v4.1L107.4,39.1L107.4,39.1z"/>
	<path class="st5" d="M114.2,32.6l1.9,5l1.9-5h1.5v6.6h-1.1V37l0.1-2.9l-1.9,5h-0.8l-1.9-5L114,37v2.2h-1.1v-6.6
		C112.9,32.6,114.2,32.6,114.2,32.6z"/>
	<path class="st5" d="M123.5,39.1c0-0.1-0.1-0.2-0.1-0.5c-0.3,0.4-0.8,0.5-1.3,0.5s-0.9-0.1-1.2-0.4c-0.3-0.3-0.5-0.6-0.5-1
		c0-0.5,0.2-0.9,0.6-1.2s0.9-0.4,1.7-0.4h0.7v-0.3c0-0.3-0.1-0.5-0.2-0.6c-0.1-0.2-0.4-0.2-0.6-0.2s-0.5,0.1-0.6,0.2
		c-0.2,0.1-0.2,0.3-0.2,0.5h-1.1c0-0.3,0.1-0.5,0.3-0.7c0.2-0.2,0.4-0.4,0.7-0.5s0.6-0.2,1-0.2c0.6,0,1,0.1,1.4,0.4s0.5,0.7,0.5,1.2
		V38c0,0.4,0.1,0.8,0.2,1v0.1H123.5z M122.3,38.4c0.2,0,0.4-0.1,0.6-0.2c0.2-0.1,0.3-0.2,0.4-0.4v-0.9h-0.6c-0.4,0-0.7,0.1-0.9,0.2
		c-0.2,0.1-0.3,0.3-0.3,0.6c0,0.2,0.1,0.4,0.2,0.5C121.9,38.3,122.1,38.4,122.3,38.4z"/>
	<path class="st5" d="M126.7,34.8c0.4-0.4,0.8-0.6,1.4-0.6c1,0,1.6,0.6,1.6,1.8v3.2h-1.1V36c0-0.3-0.1-0.6-0.2-0.7s-0.4-0.2-0.6-0.2
		c-0.4,0-0.8,0.2-1,0.6v3.5h-1.1v-6.9h1.1L126.7,34.8L126.7,34.8z"/>
	<path class="st5" d="M133.7,39.1c0-0.1-0.1-0.2-0.1-0.5c-0.3,0.4-0.8,0.5-1.3,0.5s-0.9-0.1-1.2-0.4c-0.3-0.3-0.5-0.6-0.5-1
		c0-0.5,0.2-0.9,0.6-1.2c0.4-0.3,0.9-0.4,1.7-0.4h0.7v-0.3c0-0.3-0.1-0.5-0.2-0.6c-0.1-0.2-0.4-0.2-0.6-0.2c-0.2,0-0.5,0.1-0.6,0.2
		c-0.2,0.1-0.2,0.3-0.2,0.5h-1.1c0-0.3,0.1-0.5,0.3-0.7s0.4-0.4,0.7-0.5s0.6-0.2,1-0.2c0.6,0,1,0.1,1.4,0.4s0.5,0.7,0.5,1.2V38
		c0,0.4,0.1,0.8,0.2,1v0.1H133.7z M132.5,38.4c0.2,0,0.4-0.1,0.6-0.2c0.2-0.1,0.3-0.2,0.4-0.4v-0.9h-0.6c-0.4,0-0.7,0.1-0.9,0.2
		c-0.2,0.1-0.3,0.3-0.3,0.6c0,0.2,0.1,0.4,0.2,0.5C132,38.3,132.2,38.4,132.5,38.4z"/>
	<path class="st5" d="M138.3,35.3c-0.1,0-0.3,0-0.4,0c-0.5,0-0.8,0.2-1,0.6v3.3h-1.1v-4.9h1v0.5c0.3-0.4,0.6-0.6,1.1-0.6
		c0.2,0,0.3,0,0.4,0.1V35.3z"/>
	<path class="st5" d="M141.7,39.1c0-0.1-0.1-0.2-0.1-0.5c-0.3,0.4-0.8,0.5-1.3,0.5s-0.9-0.1-1.2-0.4c-0.3-0.3-0.5-0.6-0.5-1
		c0-0.5,0.2-0.9,0.6-1.2c0.4-0.3,0.9-0.4,1.7-0.4h0.7v-0.3c0-0.3-0.1-0.5-0.2-0.6c-0.1-0.2-0.4-0.2-0.6-0.2c-0.2,0-0.5,0.1-0.6,0.2
		c-0.2,0.1-0.2,0.3-0.2,0.5h-1.1c0-0.3,0.1-0.5,0.3-0.7s0.4-0.4,0.7-0.5s0.6-0.2,1-0.2c0.6,0,1,0.1,1.4,0.4s0.5,0.7,0.5,1.2V38
		c0,0.4,0.1,0.8,0.2,1v0.1H141.7z M140.5,38.4c0.2,0,0.4-0.1,0.6-0.2c0.2-0.1,0.3-0.2,0.4-0.4v-0.9H141c-0.4,0-0.7,0.1-0.9,0.2
		c-0.2,0.1-0.3,0.3-0.3,0.6c0,0.2,0.1,0.4,0.2,0.5C140.1,38.3,140.3,38.4,140.5,38.4z"/>
	<path class="st5" d="M146.5,37.8c0-0.2-0.1-0.3-0.2-0.4c-0.2-0.1-0.4-0.2-0.8-0.3c-0.4-0.1-0.7-0.2-0.9-0.3
		c-0.5-0.3-0.8-0.6-0.8-1.1c0-0.4,0.2-0.8,0.5-1.1s0.8-0.4,1.3-0.4c0.6,0,1.1,0.1,1.4,0.4c0.4,0.3,0.5,0.7,0.5,1.1h-1.1
		c0-0.2-0.1-0.4-0.2-0.5c-0.2-0.1-0.4-0.2-0.6-0.2c-0.2,0-0.4,0.1-0.6,0.2s-0.2,0.3-0.2,0.4c0,0.2,0.1,0.3,0.2,0.4
		c0.1,0.1,0.4,0.2,0.9,0.3s0.8,0.2,1,0.3s0.4,0.3,0.5,0.5s0.2,0.4,0.2,0.7c0,0.4-0.2,0.8-0.5,1.1c-0.4,0.3-0.8,0.4-1.4,0.4
		c-0.4,0-0.8-0.1-1.1-0.2c-0.3-0.1-0.6-0.3-0.7-0.6s-0.3-0.5-0.3-0.8h1.1c0,0.3,0.1,0.5,0.3,0.6s0.4,0.2,0.7,0.2s0.5-0.1,0.7-0.2
		C146.5,38.1,146.5,38,146.5,37.8z"/>
	<path class="st5" d="M149.7,34.8c0.4-0.4,0.8-0.6,1.4-0.6c1,0,1.6,0.6,1.6,1.8v3.2h-1.1V36c0-0.3-0.1-0.6-0.2-0.7s-0.4-0.2-0.6-0.2
		c-0.4,0-0.8,0.2-1,0.6v3.5h-1.1v-6.9h1.1L149.7,34.8L149.7,34.8z"/>
	<path class="st5" d="M155.1,33.1v1.2h0.9v0.8h-0.9v2.7c0,0.2,0,0.3,0.1,0.4c0.1,0.1,0.2,0.1,0.4,0.1c0.1,0,0.3,0,0.4,0v0.8
		c-0.2,0.1-0.5,0.1-0.7,0.1c-0.8,0-1.3-0.5-1.3-1.4V35h-0.8v-0.8h0.8V33h1.1V33.1z"/>
	<path class="st5" d="M159.3,35.3c-0.1,0-0.3,0-0.4,0c-0.5,0-0.8,0.2-1,0.6v3.3h-1.1v-4.9h1v0.5c0.3-0.4,0.6-0.6,1.1-0.6
		c0.2,0,0.3,0,0.4,0.1V35.3z"/>
	<path class="st5" d="M162.8,39.1c0-0.1-0.1-0.2-0.1-0.5c-0.3,0.4-0.8,0.5-1.3,0.5s-0.9-0.1-1.2-0.4c-0.3-0.3-0.5-0.6-0.5-1
		c0-0.5,0.2-0.9,0.6-1.2c0.4-0.3,0.9-0.4,1.7-0.4h0.7v-0.3c0-0.3-0.1-0.5-0.2-0.6c-0.1-0.2-0.4-0.2-0.6-0.2c-0.2,0-0.5,0.1-0.6,0.2
		c-0.2,0.1-0.2,0.3-0.2,0.5H160c0-0.3,0.1-0.5,0.3-0.7s0.4-0.4,0.7-0.5s0.6-0.2,1-0.2c0.6,0,1,0.1,1.4,0.4s0.5,0.7,0.5,1.2V38
		c0,0.4,0.1,0.8,0.2,1v0.1H162.8z M161.6,38.4c0.2,0,0.4-0.1,0.6-0.2c0.2-0.1,0.3-0.2,0.4-0.4v-0.9H162c-0.4,0-0.7,0.1-0.9,0.2
		c-0.2,0.1-0.3,0.3-0.3,0.6c0,0.2,0.1,0.4,0.2,0.5C161.1,38.3,161.3,38.4,161.6,38.4z"/>
</g>
<text transform="matrix(1 0 0 1 48.8999 49.9375)" class="st5 st6 st7">Office of Settlement Commissioner and Director LandRecords</text>
</svg>
